<svg width="57" height="57" viewBox="0 0 57 57" fill="none" xmlns="http://www.w3.org/2000/svg">
<rect x="0.5" y="0.601562" width="56" height="56" rx="8" fill="#223E7F"/>
<mask id="path-2-outside-1_1656_922" maskUnits="userSpaceOnUse" x="12.832" y="16.9336" width="31" height="22" fill="black">
<rect fill="white" x="12.832" y="16.9336" width="31" height="22"/>
<path fill-rule="evenodd" clip-rule="evenodd" d="M27.216 35.535H30.9424C30.9451 35.535 30.9478 35.535 30.9505 35.5349H34.6725C34.9565 37.2071 36.1917 38.4685 37.6669 38.4685C39.1422 38.4685 40.3773 37.2071 40.6613 35.5349H41.6376C41.7801 35.5351 41.9182 35.4753 42.0278 35.3659C42.1375 35.2566 42.2117 35.1047 42.2377 34.9365L43.1654 28.9344C43.1654 25.2953 40.6976 22.3339 37.6651 22.3339H33.9307L34.5947 18.8283C34.6148 18.721 34.6146 18.6096 34.594 18.5023C34.5734 18.3951 34.533 18.2948 34.4757 18.2088C34.4184 18.1229 34.3457 18.0535 34.2631 18.0059C34.1804 17.9583 34.0899 17.9335 33.9982 17.9336H19.3306C19.1685 17.9336 19.013 18.0109 18.8984 18.1484C18.7838 18.2859 18.7194 18.4725 18.7194 18.667C18.7194 18.8615 18.7838 19.048 18.8984 19.1856C19.013 19.3231 19.1685 19.4004 19.3306 19.4004H33.2318L32.5683 22.9046C32.5683 22.905 32.5682 22.9055 32.5681 22.9059L32.5646 22.9245L30.4543 34.0682H27.216C26.932 32.396 25.6968 31.1346 24.2216 31.1346C22.7464 31.1346 21.5112 32.3959 21.2272 34.0681H19.3306C19.1685 34.0681 19.013 34.1454 18.8984 34.2829C18.7838 34.4205 18.7194 34.607 18.7194 34.8015C18.7194 34.996 18.7838 35.1826 18.8984 35.3201C19.013 35.4577 19.1685 35.5349 19.3306 35.5349H21.2272C21.5112 37.2071 22.7464 38.4685 24.2216 38.4685C25.6968 38.4685 26.932 37.2072 27.216 35.535ZM26.0546 34.7523C26.0537 34.7686 26.0532 34.7851 26.0532 34.8016C26.0532 34.8181 26.0537 34.8345 26.0546 34.8509C26.0326 36.0412 25.2187 37.0017 24.2216 37.0017C23.2108 37.0017 22.3881 36.0146 22.3881 34.8015C22.3881 33.5885 23.2108 32.6014 24.2216 32.6014C25.2187 32.6014 26.0327 33.5619 26.0546 34.7523ZM31.7084 34.0681L33.6529 23.8007H37.6651C40.0241 23.8007 41.9431 26.1035 41.9541 28.7995L41.1303 34.0681H40.6613C40.3773 32.3959 39.1421 31.1346 37.6669 31.1346C36.1917 31.1346 34.9565 32.3959 34.6725 34.0681H31.7084ZM37.6669 32.6014C38.664 32.6014 39.478 33.5619 39.4999 34.7523C39.499 34.7686 39.4985 34.785 39.4985 34.8015C39.4985 34.818 39.499 34.8344 39.4999 34.8508C39.478 36.0412 38.664 37.0017 37.6669 37.0017C36.6561 37.0017 35.8335 36.0146 35.8335 34.8015C35.8335 33.5885 36.6561 32.6014 37.6669 32.6014ZM21.777 22.3339H16.8878C16.7257 22.3339 16.5702 22.2566 16.4556 22.1191C16.341 21.9816 16.2766 21.795 16.2766 21.6005C16.2766 21.406 16.341 21.2195 16.4556 21.0819C16.5702 20.9444 16.7257 20.8671 16.8878 20.8671H21.777C21.9391 20.8671 22.0945 20.9444 22.2091 21.0819C22.3238 21.2195 22.3881 21.406 22.3881 21.6005C22.3881 21.795 22.3238 21.9816 22.2091 22.1191C22.0945 22.2566 21.9391 22.3339 21.777 22.3339ZM21.777 26.7342H15.6655C15.5034 26.7342 15.3479 26.657 15.2333 26.5194C15.1187 26.3819 15.0543 26.1954 15.0543 26.0009C15.0543 25.8063 15.1187 25.6198 15.2333 25.4823C15.3479 25.3447 15.5034 25.2675 15.6655 25.2675H21.777C21.9391 25.2675 22.0945 25.3447 22.2091 25.4823C22.3238 25.6198 22.3881 25.8063 22.3881 26.0009C22.3881 26.1954 22.3238 26.3819 22.2091 26.5194C22.0945 26.657 21.9391 26.7342 21.777 26.7342ZM21.777 31.1346H14.4432C14.2811 31.1346 14.1256 31.0573 14.011 30.9198C13.8964 30.7823 13.832 30.5957 13.832 30.4012C13.832 30.2067 13.8964 30.0202 14.011 29.8826C14.1256 29.7451 14.2811 29.6678 14.4432 29.6678H21.777C21.9391 29.6678 22.0945 29.7451 22.2091 29.8826C22.3238 30.0202 22.3881 30.2067 22.3881 30.4012C22.3881 30.5957 22.3238 30.7823 22.2091 30.9198C22.0945 31.0573 21.9391 31.1346 21.777 31.1346Z"/>
</mask>
<path fill-rule="evenodd" clip-rule="evenodd" d="M27.216 35.535H30.9424C30.9451 35.535 30.9478 35.535 30.9505 35.5349H34.6725C34.9565 37.2071 36.1917 38.4685 37.6669 38.4685C39.1422 38.4685 40.3773 37.2071 40.6613 35.5349H41.6376C41.7801 35.5351 41.9182 35.4753 42.0278 35.3659C42.1375 35.2566 42.2117 35.1047 42.2377 34.9365L43.1654 28.9344C43.1654 25.2953 40.6976 22.3339 37.6651 22.3339H33.9307L34.5947 18.8283C34.6148 18.721 34.6146 18.6096 34.594 18.5023C34.5734 18.3951 34.533 18.2948 34.4757 18.2088C34.4184 18.1229 34.3457 18.0535 34.2631 18.0059C34.1804 17.9583 34.0899 17.9335 33.9982 17.9336H19.3306C19.1685 17.9336 19.013 18.0109 18.8984 18.1484C18.7838 18.2859 18.7194 18.4725 18.7194 18.667C18.7194 18.8615 18.7838 19.048 18.8984 19.1856C19.013 19.3231 19.1685 19.4004 19.3306 19.4004H33.2318L32.5683 22.9046C32.5683 22.905 32.5682 22.9055 32.5681 22.9059L32.5646 22.9245L30.4543 34.0682H27.216C26.932 32.396 25.6968 31.1346 24.2216 31.1346C22.7464 31.1346 21.5112 32.3959 21.2272 34.0681H19.3306C19.1685 34.0681 19.013 34.1454 18.8984 34.2829C18.7838 34.4205 18.7194 34.607 18.7194 34.8015C18.7194 34.996 18.7838 35.1826 18.8984 35.3201C19.013 35.4577 19.1685 35.5349 19.3306 35.5349H21.2272C21.5112 37.2071 22.7464 38.4685 24.2216 38.4685C25.6968 38.4685 26.932 37.2072 27.216 35.535ZM26.0546 34.7523C26.0537 34.7686 26.0532 34.7851 26.0532 34.8016C26.0532 34.8181 26.0537 34.8345 26.0546 34.8509C26.0326 36.0412 25.2187 37.0017 24.2216 37.0017C23.2108 37.0017 22.3881 36.0146 22.3881 34.8015C22.3881 33.5885 23.2108 32.6014 24.2216 32.6014C25.2187 32.6014 26.0327 33.5619 26.0546 34.7523ZM31.7084 34.0681L33.6529 23.8007H37.6651C40.0241 23.8007 41.9431 26.1035 41.9541 28.7995L41.1303 34.0681H40.6613C40.3773 32.3959 39.1421 31.1346 37.6669 31.1346C36.1917 31.1346 34.9565 32.3959 34.6725 34.0681H31.7084ZM37.6669 32.6014C38.664 32.6014 39.478 33.5619 39.4999 34.7523C39.499 34.7686 39.4985 34.785 39.4985 34.8015C39.4985 34.818 39.499 34.8344 39.4999 34.8508C39.478 36.0412 38.664 37.0017 37.6669 37.0017C36.6561 37.0017 35.8335 36.0146 35.8335 34.8015C35.8335 33.5885 36.6561 32.6014 37.6669 32.6014ZM21.777 22.3339H16.8878C16.7257 22.3339 16.5702 22.2566 16.4556 22.1191C16.341 21.9816 16.2766 21.795 16.2766 21.6005C16.2766 21.406 16.341 21.2195 16.4556 21.0819C16.5702 20.9444 16.7257 20.8671 16.8878 20.8671H21.777C21.9391 20.8671 22.0945 20.9444 22.2091 21.0819C22.3238 21.2195 22.3881 21.406 22.3881 21.6005C22.3881 21.795 22.3238 21.9816 22.2091 22.1191C22.0945 22.2566 21.9391 22.3339 21.777 22.3339ZM21.777 26.7342H15.6655C15.5034 26.7342 15.3479 26.657 15.2333 26.5194C15.1187 26.3819 15.0543 26.1954 15.0543 26.0009C15.0543 25.8063 15.1187 25.6198 15.2333 25.4823C15.3479 25.3447 15.5034 25.2675 15.6655 25.2675H21.777C21.9391 25.2675 22.0945 25.3447 22.2091 25.4823C22.3238 25.6198 22.3881 25.8063 22.3881 26.0009C22.3881 26.1954 22.3238 26.3819 22.2091 26.5194C22.0945 26.657 21.9391 26.7342 21.777 26.7342ZM21.777 31.1346H14.4432C14.2811 31.1346 14.1256 31.0573 14.011 30.9198C13.8964 30.7823 13.832 30.5957 13.832 30.4012C13.832 30.2067 13.8964 30.0202 14.011 29.8826C14.1256 29.7451 14.2811 29.6678 14.4432 29.6678H21.777C21.9391 29.6678 22.0945 29.7451 22.2091 29.8826C22.3238 30.0202 22.3881 30.2067 22.3881 30.4012C22.3881 30.5957 22.3238 30.7823 22.2091 30.9198C22.0945 31.0573 21.9391 31.1346 21.777 31.1346Z" fill="white"/>
<path d="M27.216 35.535V35.335H27.0471L27.0188 35.5015L27.216 35.535ZM30.9505 35.5349V35.3349L30.9475 35.3349L30.9505 35.5349ZM34.6725 35.5349L34.8697 35.5014L34.8414 35.3349H34.6725V35.5349ZM40.6613 35.5349V35.3349H40.4924L40.4641 35.5014L40.6613 35.5349ZM41.6376 35.5349L41.6377 35.3349H41.6376V35.5349ZM42.2377 34.9365L42.0401 34.9059L42.2377 34.9365ZM43.1654 28.9344L43.3631 28.965L43.3654 28.9498V28.9344H43.1654ZM33.9307 22.3339L33.7342 22.2967L33.6893 22.5339H33.9307V22.3339ZM34.5947 18.8283L34.7912 18.8655L34.7912 18.8653L34.5947 18.8283ZM34.594 18.5023L34.7904 18.4646V18.4646L34.594 18.5023ZM34.4757 18.2088L34.6421 18.0979L34.6421 18.0979L34.4757 18.2088ZM33.9982 17.9336V18.1336L33.9983 18.1336L33.9982 17.9336ZM18.8984 18.1484L19.052 18.2764L19.052 18.2764L18.8984 18.1484ZM18.8984 19.1856L19.052 19.0575L19.052 19.0575L18.8984 19.1856ZM33.2318 19.4004L33.4283 19.4376L33.4732 19.2004H33.2318V19.4004ZM32.5683 22.9046L32.3718 22.8674L32.3718 22.8676L32.5683 22.9046ZM32.5681 22.9059L32.7646 22.9431L32.7646 22.9429L32.5681 22.9059ZM32.5646 22.9245L32.7611 22.9617V22.9617L32.5646 22.9245ZM30.4543 34.0682V34.2682H30.6199L30.6508 34.1054L30.4543 34.0682ZM27.216 34.0682L27.0188 34.1017L27.0471 34.2682H27.216V34.0682ZM21.2272 34.0681V34.2681H21.3961L21.4244 34.1016L21.2272 34.0681ZM18.8984 35.3201L19.052 35.1921L19.052 35.1921L18.8984 35.3201ZM21.2272 35.5349L21.4244 35.5014L21.3961 35.3349H21.2272V35.5349ZM26.0546 34.7523L26.2543 34.7635L26.2547 34.756L26.2546 34.7486L26.0546 34.7523ZM26.0546 34.8509L26.2546 34.8546L26.2547 34.8471L26.2543 34.8397L26.0546 34.8509ZM33.6529 23.8007V23.6007H33.4873L33.4564 23.7634L33.6529 23.8007ZM31.7084 34.0681L31.5119 34.0309L31.4669 34.2681H31.7084V34.0681ZM41.9541 28.7995L42.1517 28.8304L42.1542 28.8146L42.1541 28.7986L41.9541 28.7995ZM41.1303 34.0681V34.2681H41.3015L41.3279 34.099L41.1303 34.0681ZM40.6613 34.0681L40.4641 34.1016L40.4924 34.2681H40.6613V34.0681ZM34.6725 34.0681V34.2681H34.8414L34.8697 34.1016L34.6725 34.0681ZM39.4999 34.7523L39.6996 34.7635L39.7 34.756L39.6999 34.7486L39.4999 34.7523ZM39.4999 34.8508L39.6999 34.8545L39.7 34.847L39.6996 34.8396L39.4999 34.8508ZM16.4556 22.1191L16.302 22.2471V22.2471L16.4556 22.1191ZM16.4556 21.0819L16.302 20.9539V20.9539L16.4556 21.0819ZM15.2333 26.5194L15.0797 26.6475H15.0797L15.2333 26.5194ZM15.2333 25.4823L15.0797 25.3542L15.0797 25.3542L15.2333 25.4823ZM22.2091 25.4823L22.3628 25.3542L22.3628 25.3542L22.2091 25.4823ZM22.2091 26.5194L22.3628 26.6475L22.3628 26.6475L22.2091 26.5194ZM14.011 30.9198L13.8574 31.0478H13.8574L14.011 30.9198ZM14.011 29.8826L13.8574 29.7546H13.8574L14.011 29.8826ZM22.2091 29.8826L22.3628 29.7546L22.3628 29.7546L22.2091 29.8826ZM22.2091 30.9198L22.3628 31.0478L22.3628 31.0478L22.2091 30.9198ZM30.9424 35.335H27.216V35.735H30.9424V35.335ZM30.9475 35.3349C30.9459 35.335 30.9442 35.335 30.9424 35.335V35.735C30.9461 35.735 30.9497 35.735 30.9535 35.7349L30.9475 35.3349ZM30.9505 35.7349H34.6725V35.3349H30.9505V35.7349ZM34.4754 35.5684C34.7707 37.308 36.0676 38.6685 37.6669 38.6685V38.2685C36.3158 38.2685 35.1422 37.1063 34.8697 35.5014L34.4754 35.5684ZM37.6669 38.6685C39.2663 38.6685 40.5631 37.308 40.8585 35.5684L40.4641 35.5014C40.1916 37.1063 39.018 38.2685 37.6669 38.2685V38.6685ZM40.6613 35.7349H41.6376V35.3349H40.6613V35.7349ZM41.6374 35.7349C41.8378 35.7351 42.0254 35.6508 42.169 35.5076L41.8866 35.2243C41.8109 35.2998 41.7224 35.335 41.6377 35.3349L41.6374 35.7349ZM42.169 35.5076C42.3118 35.3652 42.4035 35.1729 42.4354 34.967L42.0401 34.9059C42.0199 35.0364 41.9631 35.1481 41.8866 35.2243L42.169 35.5076ZM42.4354 34.967L43.3631 28.965L42.9678 28.9039L42.0401 34.9059L42.4354 34.967ZM43.3654 28.9344C43.3654 25.2206 40.8407 22.1339 37.6651 22.1339V22.5339C40.5546 22.5339 42.9654 25.3701 42.9654 28.9344H43.3654ZM37.6651 22.1339H33.9307V22.5339H37.6651V22.1339ZM34.3981 18.7911L33.7342 22.2967L34.1272 22.3711L34.7912 18.8655L34.3981 18.7911ZM34.3976 18.54C34.4135 18.6226 34.4136 18.7087 34.3981 18.7914L34.7912 18.8653C34.816 18.7333 34.8158 18.5965 34.7904 18.4646L34.3976 18.54ZM34.3093 18.3198C34.351 18.3823 34.3818 18.4574 34.3976 18.54L34.7904 18.4646C34.7651 18.3327 34.715 18.2073 34.6421 18.0979L34.3093 18.3198ZM34.1632 18.1792C34.217 18.2102 34.2677 18.2573 34.3093 18.3198L34.6421 18.0979C34.5692 17.9885 34.4745 17.8969 34.363 17.8326L34.1632 18.1792ZM33.9983 18.1336C34.0534 18.1336 34.1097 18.1483 34.1632 18.1792L34.363 17.8326C34.2512 17.7682 34.1263 17.7335 33.9981 17.7336L33.9983 18.1336ZM19.3306 18.1336H33.9982V17.7336H19.3306V18.1336ZM19.052 18.2764C19.1332 18.1791 19.2345 18.1336 19.3306 18.1336V17.7336C19.1024 17.7336 18.8929 17.8426 18.7448 18.0204L19.052 18.2764ZM18.9194 18.667C18.9194 18.5149 18.9701 18.3748 19.052 18.2764L18.7448 18.0204C18.5975 18.197 18.5194 18.43 18.5194 18.667H18.9194ZM19.052 19.0575C18.9701 18.9591 18.9194 18.819 18.9194 18.667H18.5194C18.5194 18.9039 18.5975 19.1369 18.7448 19.3136L19.052 19.0575ZM19.3306 19.2004C19.2345 19.2004 19.1332 19.1549 19.052 19.0575L18.7448 19.3136C18.8929 19.4914 19.1024 19.6004 19.3306 19.6004V19.2004ZM33.2318 19.2004H19.3306V19.6004H33.2318V19.2004ZM32.7648 22.9418L33.4283 19.4376L33.0353 19.3632L32.3718 22.8674L32.7648 22.9418ZM32.3718 22.8676C32.3717 22.868 32.3716 22.8685 32.3715 22.869L32.7646 22.9429C32.7647 22.9425 32.7648 22.942 32.7649 22.9416L32.3718 22.8676ZM32.7611 22.9617L32.7646 22.9431L32.3716 22.8687L32.3681 22.8873L32.7611 22.9617ZM32.3681 22.8873L30.2577 34.031L30.6508 34.1054L32.7611 22.9617L32.3681 22.8873ZM27.216 34.2682H30.4543V33.8682H27.216V34.2682ZM27.4132 34.0347C27.1178 32.2951 25.8209 30.9346 24.2216 30.9346V31.3346C25.5727 31.3346 26.7463 32.4968 27.0188 34.1017L27.4132 34.0347ZM24.2216 30.9346C22.6223 30.9346 21.3254 32.2951 21.03 34.0347L21.4244 34.1016C21.6969 32.4968 22.8705 31.3346 24.2216 31.3346V30.9346ZM21.2272 33.8681H19.3306V34.2681H21.2272V33.8681ZM19.3306 33.8681C19.1024 33.8681 18.8929 33.9772 18.7448 34.1549L19.052 34.411C19.1332 34.3137 19.2345 34.2681 19.3306 34.2681V33.8681ZM18.7448 34.1549C18.5975 34.3316 18.5194 34.5646 18.5194 34.8015H18.9194C18.9194 34.6495 18.9701 34.5094 19.052 34.411L18.7448 34.1549ZM18.5194 34.8015C18.5194 35.0385 18.5975 35.2715 18.7448 35.4482L19.052 35.1921C18.9701 35.0937 18.9194 34.9536 18.9194 34.8015H18.5194ZM18.7448 35.4482C18.8929 35.6259 19.1024 35.7349 19.3306 35.7349V35.3349C19.2345 35.3349 19.1332 35.2894 19.052 35.1921L18.7448 35.4482ZM19.3306 35.7349H21.2272V35.3349H19.3306V35.7349ZM21.03 35.5684C21.3254 37.308 22.6223 38.6685 24.2216 38.6685V38.2685C22.8705 38.2685 21.6969 37.1063 21.4244 35.5014L21.03 35.5684ZM24.2216 38.6685C25.8209 38.6685 27.1177 37.308 27.4131 35.5685L27.0188 35.5015C26.7463 37.1063 25.5727 38.2685 24.2216 38.2685V38.6685ZM26.2532 34.8016C26.2532 34.7888 26.2536 34.7761 26.2543 34.7635L25.8549 34.7411C25.8538 34.7612 25.8532 34.7813 25.8532 34.8016H26.2532ZM26.2543 34.8397C26.2536 34.8271 26.2532 34.8144 26.2532 34.8016H25.8532C25.8532 34.8218 25.8538 34.842 25.8549 34.8621L26.2543 34.8397ZM25.8546 34.8472C25.834 35.9635 25.0777 36.8017 24.2216 36.8017V37.2017C25.3597 37.2017 26.2312 36.1189 26.2546 34.8546L25.8546 34.8472ZM24.2216 36.8017C23.3538 36.8017 22.5881 35.9398 22.5881 34.8015H22.1881C22.1881 36.0893 23.0677 37.2017 24.2216 37.2017V36.8017ZM22.5881 34.8015C22.5881 33.6633 23.3538 32.8014 24.2216 32.8014V32.4014C23.0677 32.4014 22.1881 33.5138 22.1881 34.8015H22.5881ZM24.2216 32.8014C25.0778 32.8014 25.8341 33.6396 25.8546 34.756L26.2546 34.7486C26.2313 33.4842 25.3597 32.4014 24.2216 32.4014V32.8014ZM33.4564 23.7634L31.5119 34.0309L31.9049 34.1054L33.8494 23.8379L33.4564 23.7634ZM33.6529 24.0007H37.6651V23.6007H33.6529V24.0007ZM37.6651 24.0007C39.8841 24.0007 41.7435 26.182 41.7541 28.8003L42.1541 28.7986C42.1428 26.025 40.1641 23.6007 37.6651 23.6007V24.0007ZM41.7565 28.7686L40.9327 34.0372L41.3279 34.099L42.1517 28.8304L41.7565 28.7686ZM41.1303 33.8681H40.6613V34.2681H41.1303V33.8681ZM40.8585 34.0347C40.5631 32.2951 39.2662 30.9346 37.6669 30.9346V31.3346C39.018 31.3346 40.1916 32.4968 40.4641 34.1016L40.8585 34.0347ZM37.6669 30.9346C36.0676 30.9346 34.7708 32.2951 34.4754 34.0347L34.8697 34.1016C35.1422 32.4968 36.3158 31.3346 37.6669 31.3346V30.9346ZM34.6725 33.8681H31.7084V34.2681H34.6725V33.8681ZM39.6999 34.7486C39.6766 33.4842 38.805 32.4014 37.6669 32.4014V32.8014C38.5231 32.8014 39.2794 33.6396 39.2999 34.7559L39.6999 34.7486ZM39.6985 34.8015C39.6985 34.7888 39.6989 34.7761 39.6996 34.7635L39.3002 34.7411C39.2991 34.7611 39.2985 34.7813 39.2985 34.8015H39.6985ZM39.6996 34.8396C39.6989 34.827 39.6985 34.8143 39.6985 34.8015H39.2985C39.2985 34.8218 39.2991 34.8419 39.3002 34.862L39.6996 34.8396ZM37.6669 37.2017C38.805 37.2017 39.6766 36.1189 39.6999 34.8545L39.2999 34.8471C39.2794 35.9635 38.5231 36.8017 37.6669 36.8017V37.2017ZM35.6335 34.8015C35.6335 36.0893 36.513 37.2017 37.6669 37.2017V36.8017C36.7991 36.8017 36.0335 35.9398 36.0335 34.8015H35.6335ZM37.6669 32.4014C36.513 32.4014 35.6335 33.5138 35.6335 34.8015H36.0335C36.0335 33.6633 36.7991 32.8014 37.6669 32.8014V32.4014ZM16.8878 22.5339H21.777V22.1339H16.8878V22.5339ZM16.302 22.2471C16.4501 22.4249 16.6597 22.5339 16.8878 22.5339V22.1339C16.7917 22.1339 16.6904 22.0884 16.6093 21.9911L16.302 22.2471ZM16.0766 21.6005C16.0766 21.8375 16.1548 22.0705 16.302 22.2471L16.6093 21.9911C16.5273 21.8927 16.4766 21.7526 16.4766 21.6005H16.0766ZM16.302 20.9539C16.1548 21.1306 16.0766 21.3636 16.0766 21.6005H16.4766C16.4766 21.4484 16.5273 21.3084 16.6093 21.21L16.302 20.9539ZM16.8878 20.6671C16.6597 20.6671 16.4501 20.7761 16.302 20.9539L16.6093 21.21C16.6904 21.1126 16.7917 21.0671 16.8878 21.0671V20.6671ZM21.777 20.6671H16.8878V21.0671H21.777V20.6671ZM22.3628 20.9539C22.2147 20.7761 22.0051 20.6671 21.777 20.6671V21.0671C21.873 21.0671 21.9744 21.1126 22.0555 21.21L22.3628 20.9539ZM22.5881 21.6005C22.5881 21.3636 22.51 21.1306 22.3628 20.9539L22.0555 21.21C22.1375 21.3084 22.1881 21.4484 22.1881 21.6005H22.5881ZM22.3628 22.2471C22.51 22.0704 22.5881 21.8375 22.5881 21.6005H22.1881C22.1881 21.7526 22.1375 21.8927 22.0555 21.9911L22.3628 22.2471ZM21.777 22.5339C22.0051 22.5339 22.2147 22.4249 22.3628 22.2471L22.0555 21.9911C21.9744 22.0884 21.873 22.1339 21.777 22.1339V22.5339ZM15.6655 26.9342H21.777V26.5342H15.6655V26.9342ZM15.0797 26.6475C15.2278 26.8252 15.4374 26.9342 15.6655 26.9342V26.5342C15.5694 26.5342 15.4681 26.4887 15.387 26.3914L15.0797 26.6475ZM14.8543 26.0009C14.8543 26.2378 14.9325 26.4708 15.0797 26.6475L15.387 26.3914C15.305 26.293 15.2543 26.1529 15.2543 26.0009H14.8543ZM15.0797 25.3542C14.9325 25.5309 14.8543 25.7639 14.8543 26.0009H15.2543C15.2543 25.8488 15.305 25.7087 15.387 25.6103L15.0797 25.3542ZM15.6655 25.0675C15.4374 25.0675 15.2278 25.1765 15.0797 25.3542L15.387 25.6103C15.4681 25.513 15.5694 25.4675 15.6655 25.4675V25.0675ZM21.777 25.0675H15.6655V25.4675H21.777V25.0675ZM22.3628 25.3542C22.2147 25.1765 22.0051 25.0675 21.777 25.0675V25.4675C21.873 25.4675 21.9744 25.513 22.0555 25.6103L22.3628 25.3542ZM22.5881 26.0009C22.5881 25.7639 22.51 25.5309 22.3628 25.3542L22.0555 25.6103C22.1375 25.7087 22.1881 25.8488 22.1881 26.0009H22.5881ZM22.3628 26.6475C22.51 26.4708 22.5881 26.2378 22.5881 26.0009H22.1881C22.1881 26.1529 22.1375 26.293 22.0555 26.3914L22.3628 26.6475ZM21.777 26.9342C22.0051 26.9342 22.2147 26.8252 22.3628 26.6475L22.0555 26.3914C21.9744 26.4887 21.873 26.5342 21.777 26.5342V26.9342ZM14.4432 31.3346H21.777V30.9346H14.4432V31.3346ZM13.8574 31.0478C14.0055 31.2256 14.2151 31.3346 14.4432 31.3346V30.9346C14.3471 30.9346 14.2458 30.8891 14.1647 30.7918L13.8574 31.0478ZM13.632 30.4012C13.632 30.6382 13.7102 30.8711 13.8574 31.0478L14.1647 30.7918C14.0827 30.6934 14.032 30.5533 14.032 30.4012H13.632ZM13.8574 29.7546C13.7102 29.9313 13.632 30.1643 13.632 30.4012H14.032C14.032 30.2491 14.0827 30.109 14.1647 30.0107L13.8574 29.7546ZM14.4432 29.4678C14.2151 29.4678 14.0055 29.5768 13.8574 29.7546L14.1647 30.0107C14.2458 29.9133 14.3471 29.8678 14.4432 29.8678V29.4678ZM21.777 29.4678H14.4432V29.8678H21.777V29.4678ZM22.3628 29.7546C22.2147 29.5768 22.0051 29.4678 21.777 29.4678V29.8678C21.873 29.8678 21.9744 29.9133 22.0555 30.0107L22.3628 29.7546ZM22.5881 30.4012C22.5881 30.1643 22.51 29.9313 22.3628 29.7546L22.0555 30.0107C22.1375 30.109 22.1881 30.2491 22.1881 30.4012H22.5881ZM22.3628 31.0478C22.51 30.8711 22.5881 30.6382 22.5881 30.4012H22.1881C22.1881 30.5533 22.1375 30.6934 22.0555 30.7918L22.3628 31.0478ZM21.777 31.3346C22.0051 31.3346 22.2147 31.2256 22.3628 31.0478L22.0555 30.7918C21.9744 30.8891 21.873 30.9346 21.777 30.9346V31.3346Z" fill="white" mask="url(#path-2-outside-1_1656_922)"/>
</svg>
