<svg width="101" height="100" viewBox="0 0 101 100" fill="none" xmlns="http://www.w3.org/2000/svg">
<rect x="0.5" width="100" height="100" rx="14" fill="#223E7F"/>
<path fill-rule="evenodd" clip-rule="evenodd" d="M50.5 38.125C51.5355 38.125 52.375 38.9645 52.375 40V49.2233L58.0758 54.9242C58.8081 55.6564 58.8081 56.8436 58.0758 57.5758C57.3436 58.3081 56.1564 58.3081 55.4242 57.5758L49.1742 51.3258C48.8225 50.9742 48.625 50.4973 48.625 50V40C48.625 38.9645 49.4645 38.125 50.5 38.125Z" fill="#FCFCFC"/>
<path fill-rule="evenodd" clip-rule="evenodd" d="M50.5 26.875C46.2848 26.875 42.3383 28.0011 38.9389 29.9676C38.0425 30.4861 36.8955 30.1798 36.377 29.2834C35.8585 28.3871 36.1648 27.2401 37.0611 26.7215C41.016 24.4338 45.608 23.125 50.5 23.125C65.3427 23.125 77.375 35.1573 77.375 50C77.375 64.8427 65.3427 76.875 50.5 76.875C35.6573 76.875 23.625 64.8427 23.625 50C23.625 45.108 24.9338 40.516 27.2215 36.5611C27.7401 35.6648 28.8871 35.3585 29.7834 35.877C30.6798 36.3955 30.9861 37.5425 30.4676 38.4389C28.5011 41.8383 27.375 45.7848 27.375 50C27.375 62.7716 37.7284 73.125 50.5 73.125C63.2716 73.125 73.625 62.7716 73.625 50C73.625 37.2284 63.2716 26.875 50.5 26.875Z" fill="#FCFCFC"/>
</svg>
