<svg width="101" height="100" viewBox="0 0 101 100" fill="none" xmlns="http://www.w3.org/2000/svg">
<rect x="0.5" width="100" height="100" rx="14" fill="#223E7F"/>
<path d="M75.1355 63.102C75.4317 63.1022 75.7154 62.9778 75.938 62.7559C76.1601 62.5344 76.3081 62.2293 76.3597 61.8951L78.0992 50.6413L78.1004 50.6337V50.626C78.1004 43.7653 73.4447 38.15 67.6872 38.15H59.2487C58.9605 38.1498 58.6838 38.2675 58.4636 38.4787C58.2437 38.6895 58.0927 38.9812 58.0321 39.3041L53.8656 61.3057L53.8655 61.3058L75.1356 63.002M75.1355 63.102L75.1356 63.002M75.1355 63.102H75.1356V63.002M75.1355 63.102H72.2708C71.9339 63.102 71.6154 62.9412 71.3837 62.6632C71.1525 62.3858 71.0249 62.0128 71.0249 61.6268C71.0249 61.2409 71.1525 60.8679 71.3837 60.5905C71.6154 60.3125 71.9339 60.1517 72.2708 60.1517H74.0989M75.1356 63.002H72.2708C71.9669 63.002 71.6755 62.8571 71.4606 62.5992C71.2457 62.3413 71.1249 61.9915 71.1249 61.6268C71.1249 61.2621 71.2457 60.9124 71.4606 60.6545C71.6755 60.3966 71.9669 60.2517 72.2708 60.2517H74.1845M74.0989 60.1517L74.0857 60.2363L74.1845 60.2517M74.0989 60.1517H74.1845V60.2517M74.0989 60.1517L75.6292 50.3654C75.6049 45.3528 72.0381 41.1002 67.6872 41.1002H60.246L56.6376 60.1517H63.1036C63.4405 60.1517 63.759 60.3125 63.9907 60.5905C64.2219 60.8679 64.3495 61.2409 64.3495 61.6268C64.3495 62.0128 64.2219 62.3858 63.9907 62.6632C63.759 62.9412 63.4405 63.102 63.1036 63.102H55.0823H55.0822V63.002L74.1845 60.2517M33.31 63.102H37.8936C38.2305 63.102 38.5491 62.9412 38.7807 62.6632C39.0119 62.3858 39.1395 62.0128 39.1395 61.6268C39.1395 61.2409 39.0119 60.8679 38.7807 60.5905C38.5491 60.3125 38.2305 60.1517 37.8936 60.1517H33.31C32.973 60.1517 32.6545 60.3125 32.4229 60.5905C32.1917 60.8679 32.0641 61.2409 32.0641 61.6268C32.0641 62.0128 32.1917 62.3858 32.4229 62.6632C32.6545 62.9412 32.973 63.102 33.31 63.102Z" fill="#FCFCFC" stroke="#FCFCFC" stroke-width="0.2"/>
<path d="M61.8609 61.6271C61.8609 65.457 64.4608 68.6026 67.6904 68.6026C70.92 68.6026 73.5199 65.457 73.5199 61.6271C73.5199 57.7971 70.92 54.6515 67.6904 54.6515C64.4608 54.6515 61.8609 57.7971 61.8609 61.6271ZM64.3527 61.6271C64.3527 59.39 65.8666 57.6017 67.6904 57.6017C69.5142 57.6017 71.0281 59.39 71.0281 61.6271C71.0281 63.8641 69.5142 65.6524 67.6904 65.6524C65.8666 65.6524 64.3527 63.8641 64.3527 61.6271ZM36.6509 61.6271C36.6509 65.457 39.2508 68.6026 42.4804 68.6026C45.7101 68.6026 48.31 65.457 48.31 61.6271C48.31 57.7971 45.7101 54.6515 42.4804 54.6515C39.2508 54.6515 36.6509 57.7971 36.6509 61.6271ZM39.1427 61.6271C39.1427 59.39 40.6566 57.6017 42.4804 57.6017C44.3042 57.6017 45.8182 59.39 45.8182 61.6271C45.8182 63.8641 44.3042 65.6524 42.4804 65.6524C40.6566 65.6524 39.1427 63.8641 39.1427 61.6271ZM28.7295 38.3502H37.8968C38.2337 38.3502 38.5523 38.1895 38.7839 37.9115C39.0151 37.634 39.1427 37.261 39.1427 36.8751C39.1427 36.4892 39.0151 36.1162 38.7839 35.8387C38.5523 35.5608 38.2337 35.4 37.8968 35.4H28.7295C28.3926 35.4 28.0741 35.5608 27.8424 35.8387C27.6112 36.1162 27.4836 36.4892 27.4836 36.8751C27.4836 37.261 27.6112 37.634 27.8424 37.9115C28.0741 38.1895 28.3926 38.3502 28.7295 38.3502ZM26.4377 46.6009H37.8968C38.2337 46.6009 38.5523 46.4401 38.7839 46.1621C39.0151 45.8847 39.1427 45.5117 39.1427 45.1258C39.1427 44.7398 39.0151 44.3668 38.7839 44.0894C38.5523 43.8114 38.2337 43.6507 37.8968 43.6507H26.4377C26.1008 43.6507 25.7823 43.8114 25.5506 44.0894C25.3194 44.3668 25.1918 44.7398 25.1918 45.1258C25.1918 45.5117 25.3194 45.8847 25.5506 46.1621C25.7823 46.4401 26.1008 46.6009 26.4377 46.6009ZM24.1459 54.8515H37.8968C38.2337 54.8515 38.5523 54.6908 38.7839 54.4128C39.0151 54.1353 39.1427 53.7623 39.1427 53.3764C39.1427 52.9905 39.0151 52.6175 38.7839 52.34C38.5523 52.0621 38.2337 51.9013 37.8968 51.9013H24.1459C23.809 51.9013 23.4905 52.0621 23.2588 52.34C23.0276 52.6175 22.9 52.9905 22.9 53.3764C22.9 53.7623 23.0276 54.1353 23.2588 54.4128C23.4905 54.6908 23.809 54.8515 24.1459 54.8515Z" fill="#FCFCFC" stroke="#FCFCFC" stroke-width="0.2"/>
<path d="M62.0284 31.6961L62.0284 31.6962L56.2989 61.9485C56.2382 62.2714 56.0872 62.5631 55.8674 62.7739C55.6472 62.9851 55.3704 63.1028 55.0822 63.1026M62.0284 31.6961L55.0822 63.0026M62.0284 31.6961C62.0686 31.4825 62.0682 31.2609 62.0272 31.0475C61.9862 30.8341 61.9056 30.6335 61.7903 30.4606C61.6751 30.2878 61.5278 30.1466 61.3584 30.0489C61.1888 29.9512 61.0019 29.8999 60.8118 29.9H33.31C32.973 29.9 32.6545 30.0608 32.4229 30.3387C32.1917 30.6162 32.0641 30.9892 32.0641 31.3751C32.0641 31.761 32.1917 32.134 32.4229 32.4115C32.6545 32.6895 32.973 32.8502 33.31 32.8502H59.2541L54.0849 60.1524M62.0284 31.6961L54.1678 60.2524M55.0822 63.1026L55.0822 63.0026M55.0822 63.1026H55.0822V63.0026M55.0822 63.1026H47.0609C46.7239 63.1026 46.4054 62.9419 46.1738 62.6639C45.9426 62.3864 45.815 62.0134 45.815 61.6275C45.815 61.2416 45.9426 60.8686 46.1738 60.5911C46.4054 60.3131 46.7239 60.1524 47.0609 60.1524H54.0849M55.0822 63.0026H47.0609C46.7569 63.0026 46.4655 62.8577 46.2506 62.5998C46.0357 62.342 45.915 61.9922 45.915 61.6275C45.915 61.2628 46.0357 60.913 46.2506 60.6552C46.4655 60.3973 46.7569 60.2524 47.0609 60.2524H54.1678M54.0849 60.1524L54.0695 60.2338L54.1678 60.2524M54.0849 60.1524H54.1678V60.2524" fill="#FCFCFC" stroke="#FCFCFC" stroke-width="0.2"/>
</svg>
