<svg width="101" height="100" viewBox="0 0 101 100" fill="none" xmlns="http://www.w3.org/2000/svg">
<rect x="0.5" width="100" height="100" rx="14" fill="#223E7F"/>
<path fill-rule="evenodd" clip-rule="evenodd" d="M57.9988 43.6014C58.7712 44.2911 58.8383 45.4764 58.1487 46.2488L49.2201 56.2488C48.8643 56.6472 48.3556 56.875 47.8214 56.875C47.2873 56.875 46.7785 56.6472 46.4228 56.2488L42.8514 52.2488C42.1617 51.4764 42.2288 50.2911 43.0012 49.6014C43.7737 48.9117 44.959 48.9788 45.6487 49.7512L47.8214 52.1848L55.3514 43.7512C56.0411 42.9788 57.2264 42.9117 57.9988 43.6014Z" fill="#FCFCFC"/>
<path fill-rule="evenodd" clip-rule="evenodd" d="M50.5 26.875C48.8556 26.875 47.2379 27.4041 43.2015 28.7857L41.7695 29.2759C37.988 30.5703 35.2302 31.5151 33.294 32.3017C32.3275 32.6943 31.6273 33.0234 31.1357 33.3088C30.8931 33.4498 30.7258 33.566 30.6142 33.6568C30.5195 33.7338 30.4834 33.7774 30.4782 33.7837C30.4734 33.7916 30.4423 33.8435 30.3986 33.9663C30.3486 34.1066 30.2932 34.3077 30.2393 34.5876C30.1301 35.1542 30.0474 35.9325 29.9902 36.9823C29.8757 39.0853 29.875 42.0208 29.875 46.0416C29.875 47.0772 29.0355 47.9166 28 47.9166C26.9645 47.9166 26.125 47.0772 26.125 46.0416V45.9748C26.125 42.0341 26.125 38.996 26.2457 36.7784C26.3066 35.6616 26.4008 34.6889 26.557 33.878C26.7073 33.0981 26.9465 32.2879 27.4091 31.6289C27.8771 30.9621 28.5659 30.4648 29.2525 30.066C29.9659 29.6517 30.852 29.2461 31.8826 28.8275C33.9285 27.9963 36.7866 27.018 40.4899 25.7503L41.9871 25.2378C42.0954 25.2008 42.2025 25.1641 42.3085 25.1278C45.9183 23.8915 48.1562 23.125 50.5 23.125C52.8438 23.125 55.0817 23.8915 58.6915 25.1278C58.7975 25.1641 58.9046 25.2008 59.0129 25.2378L60.5101 25.7503C64.2134 27.018 67.0715 27.9963 69.1174 28.8275C70.148 29.2461 71.0341 29.6517 71.7475 30.066C72.4341 30.4648 73.1229 30.9621 73.5909 31.6289C74.0535 32.2879 74.2927 33.0981 74.443 33.878C74.5992 34.6889 74.6934 35.6616 74.7542 36.7784C74.875 38.996 74.875 42.034 74.875 45.9745V49.9784C74.875 56.6962 72.6193 61.9291 69.4725 65.9211C68.8315 66.7344 67.6525 66.874 66.8393 66.2329C66.026 65.5918 65.8864 64.4129 66.5275 63.5996C69.1969 60.2131 71.125 55.7854 71.125 49.9784V46.0416C71.125 42.0208 71.1243 39.0853 71.0098 36.9823C70.9526 35.9325 70.8699 35.1542 70.7607 34.5876C70.7068 34.3077 70.6514 34.1066 70.6014 33.9663C70.5576 33.8434 70.5266 33.7915 70.5218 33.7837C70.5165 33.7773 70.4804 33.7337 70.3858 33.6568C70.2742 33.566 70.1069 33.4498 69.8643 33.3088C69.3727 33.0234 68.6725 32.6943 67.706 32.3017C65.7698 31.5151 63.012 30.5703 59.2305 29.2759L57.7985 28.7857C53.7621 27.4041 52.1444 26.875 50.5 26.875ZM28.1153 53.1612C29.1308 52.9587 30.1183 53.6177 30.3209 54.6332C32.2811 64.46 40.3702 69.6421 45.997 72.1C46.9257 72.5056 47.462 72.7353 48.059 72.8881C48.6292 73.0341 49.325 73.125 50.5 73.125C51.675 73.125 52.3708 73.0341 52.941 72.8881C53.538 72.7353 54.0743 72.5056 55.003 72.1C56.3803 71.4983 57.9301 70.7217 59.5102 69.7396C60.3897 69.1929 61.5458 69.4628 62.0925 70.3423C62.6391 71.2217 62.3693 72.3779 61.4898 72.9245C59.7316 74.0173 58.0176 74.8753 56.5042 75.5364L56.4364 75.566C55.5869 75.9372 54.7885 76.2861 53.871 76.521C52.9023 76.7689 51.8731 76.875 50.5 76.875C49.1268 76.875 48.0977 76.7689 47.129 76.521C46.2115 76.2861 45.4131 75.9372 44.5636 75.566L44.4958 75.5364C38.5118 72.9224 28.9702 67.032 26.6433 55.3668C26.4408 54.3513 27.0998 53.3638 28.1153 53.1612Z" fill="#FCFCFC"/>
</svg>
