<svg width="101" height="100" viewBox="0 0 101 100" fill="none" xmlns="http://www.w3.org/2000/svg">
<rect x="0.5" width="100" height="100" rx="14" fill="#223E7F"/>
<path fill-rule="evenodd" clip-rule="evenodd" d="M50.3444 23.125H50.6565C55.6908 23.125 59.6639 23.1249 62.5578 23.5065C65.4022 23.8815 67.9579 24.708 69.1717 27.0646C69.3466 27.4042 69.4942 27.757 69.6131 28.1199C70.4412 30.6473 69.2157 33.0347 67.4701 35.2942C65.695 37.5921 62.8844 40.3753 59.3261 43.8989L53.1651 50L59.3261 56.1011C62.8844 59.6247 65.695 62.4079 67.4701 64.7058C69.2157 66.9653 70.4412 69.3527 69.6131 71.8801C69.4942 72.243 69.3466 72.5958 69.1717 72.9354C67.9579 75.292 65.4022 76.1185 62.5578 76.4935C59.6639 76.8751 55.6908 76.875 50.6564 76.875H50.3444C45.3101 76.875 41.3369 76.8751 38.443 76.4935C35.5986 76.1185 33.0429 75.292 31.8291 72.9354C31.6543 72.5958 31.5067 72.243 31.3878 71.8801C30.5596 69.3527 31.7852 66.9653 33.5307 64.7058C35.3058 62.4079 38.1164 59.6247 41.6747 56.1011L47.8357 50L41.6747 43.8989C38.1164 40.3753 35.3058 37.5921 33.5307 35.2942C31.7852 33.0347 30.5596 30.6473 31.3878 28.1199C31.5067 27.757 31.6543 27.4042 31.8291 27.0646C33.0429 24.708 35.5986 23.8815 38.443 23.5065C41.3369 23.1249 45.3101 23.125 50.3444 23.125ZM50.5004 47.3612L56.5753 41.3454C60.2701 37.6865 62.8988 35.0776 64.5025 33.0017C66.1544 30.8634 66.2441 29.8813 66.0495 29.2876C65.9926 29.1138 65.9218 28.9447 65.8379 28.7817C65.5461 28.2152 64.7659 27.5801 62.0676 27.2243C59.4487 26.879 55.7247 26.875 50.5004 26.875C45.2762 26.875 41.5521 26.879 38.9332 27.2243C36.2349 27.5801 35.4547 28.2152 35.163 28.7817C35.079 28.9447 35.0083 29.1138 34.9513 29.2876C34.7568 29.8813 34.8464 30.8634 36.4983 33.0017C38.102 35.0776 40.7307 37.6865 44.4255 41.3454L50.5004 47.3612ZM50.5004 52.6388L44.4255 58.6546C40.7307 62.3135 38.102 64.9224 36.4983 66.9983C34.8464 69.1366 34.7568 70.1187 34.9513 70.7125C35.0083 70.8862 35.079 71.0553 35.163 71.2183C35.4547 71.7848 36.2349 72.4199 38.9332 72.7757C41.5521 73.121 45.2762 73.125 50.5004 73.125C55.7247 73.125 59.4487 73.121 62.0676 72.7757C64.7659 72.4199 65.5461 71.7848 65.8379 71.2183C65.9218 71.0553 65.9926 70.8862 66.0495 70.7125C66.2441 70.1187 66.1544 69.1366 64.5025 66.9983C62.8988 64.9224 60.2701 62.3135 56.5753 58.6546L50.5004 52.6388Z" fill="#FCFCFC"/>
<path fill-rule="evenodd" clip-rule="evenodd" d="M43.625 33.75C43.625 32.7145 44.4645 31.875 45.5 31.875H55.5C56.5355 31.875 57.375 32.7145 57.375 33.75C57.375 34.7855 56.5355 35.625 55.5 35.625H45.5C44.4645 35.625 43.625 34.7855 43.625 33.75Z" fill="#FCFCFC"/>
<path fill-rule="evenodd" clip-rule="evenodd" d="M43.625 66.25C43.625 65.2145 44.4645 64.375 45.5 64.375H55.5C56.5355 64.375 57.375 65.2145 57.375 66.25C57.375 67.2855 56.5355 68.125 55.5 68.125H45.5C44.4645 68.125 43.625 67.2855 43.625 66.25Z" fill="#FCFCFC"/>
</svg>
