<svg width="101" height="100" viewBox="0 0 101 100" fill="none" xmlns="http://www.w3.org/2000/svg">
<rect x="0.5" width="100" height="100" rx="14" fill="#223E7F"/>
<path fill-rule="evenodd" clip-rule="evenodd" d="M48.7292 28.2702C47.7449 29.5556 46.6338 31.5388 45.0199 34.4339C44.5157 35.3384 43.3738 35.6629 42.4693 35.1587C41.5648 34.6545 41.2403 33.5125 41.7445 32.608L41.8218 32.4694C43.3393 29.7469 44.581 27.5193 45.7519 25.9902C46.9436 24.4341 48.4166 23.125 50.4993 23.125C52.5821 23.125 54.055 24.4341 55.2467 25.9902C56.4177 27.5193 57.6593 29.7469 59.1769 32.4694L60.0734 34.0776C61.0547 35.8381 61.3058 36.212 61.6207 36.4511C61.9238 36.6812 62.3148 36.8095 64.2234 37.2413L65.9734 37.6373C68.9125 38.3022 71.3338 38.85 73.0972 39.5449C74.9277 40.2663 76.5295 41.3295 77.1462 43.3126C77.7565 45.2752 77.0706 47.0808 76.0105 48.7648C74.9805 50.4009 73.3354 52.3246 71.3258 54.6745L71.2241 54.7934C70.551 55.5804 69.3675 55.6728 68.5805 54.9998C67.7935 54.3268 67.701 53.1432 68.3741 52.3562C70.5104 49.8581 71.9711 48.1424 72.837 46.767C73.6901 45.4118 73.6865 44.8158 73.5653 44.4261C73.4505 44.0569 73.1493 43.5961 71.7223 43.0338C70.26 42.4575 68.125 41.9689 64.9867 41.2588L63.3958 40.8989C63.3 40.8772 63.2051 40.8559 63.111 40.8347C61.6467 40.5057 60.3868 40.2225 59.3532 39.4379C58.3307 38.6617 57.6962 37.5198 56.9443 36.1667C56.8961 36.0799 56.8473 35.9921 56.7979 35.9035L55.9787 34.4339C54.3648 31.5388 53.2537 29.5556 52.2694 28.2702C51.286 26.9861 50.7837 26.875 50.4993 26.875C50.2149 26.875 49.7126 26.9861 48.7292 28.2702ZM37.4269 39.0163C37.6554 40.0263 37.0219 41.0303 36.0119 41.2588C32.8736 41.9689 30.7387 42.4575 29.2763 43.0338C27.8493 43.5961 27.5481 44.0569 27.4333 44.4261C27.3121 44.8158 27.3085 45.4118 28.1616 46.767C29.0275 48.1424 30.4882 49.8581 32.6245 52.3562L33.7091 53.6245C33.7721 53.6982 33.8346 53.771 33.8964 53.8431C34.904 55.0184 35.744 55.9983 36.1294 57.2375C36.5124 58.4692 36.3855 59.7635 36.2315 61.3328C36.2221 61.4291 36.2126 61.5264 36.203 61.6247L36.0391 63.3168C35.7163 66.6473 35.4987 68.9404 35.5723 70.5923C35.6458 72.2411 35.994 72.6969 36.2709 72.9071C36.5172 73.0941 36.9724 73.301 38.4555 72.876C39.9626 72.4442 41.9657 71.5278 44.9043 70.1748L46.3938 69.489C46.4856 69.4467 46.5764 69.4047 46.6665 69.3631C48.0285 68.7334 49.2101 68.1871 50.4993 68.1871C51.7885 68.1871 52.9701 68.7334 54.3321 69.3631C54.4222 69.4047 54.513 69.4467 54.6048 69.489L56.0943 70.1748C59.0329 71.5278 61.036 72.4442 62.5431 72.876C64.0262 73.301 64.4815 73.0941 64.7277 72.9071C65.0046 72.6969 65.3529 72.2411 65.4263 70.5923C65.4999 68.9404 65.2823 66.6473 64.9596 63.3168C64.8597 62.2861 65.6143 61.3696 66.645 61.2697C67.6757 61.1698 68.5922 61.9244 68.6921 62.9551L68.7069 63.1084C69.0113 66.2484 69.2595 68.8091 69.1726 70.7592C69.0842 72.7441 68.6333 74.6504 66.9951 75.894C65.3263 77.1608 63.3847 77.0181 61.5102 76.481C59.6927 75.9602 57.4269 74.9169 54.6755 73.6499L53.0364 72.8952C51.2431 72.0695 50.8591 71.9371 50.4993 71.9371C50.1395 71.9371 49.7556 72.0695 47.9622 72.8952L46.3231 73.6499C43.5717 74.9169 41.3059 75.9602 39.4884 76.481C37.6139 77.0181 35.6723 77.1608 34.0035 75.894C32.3653 74.6504 31.9144 72.7441 31.826 70.7592C31.7391 68.8091 31.9873 66.2484 32.2917 63.1083L32.4705 61.263C32.6658 59.2481 32.6779 58.7672 32.5485 58.3511C32.4216 57.9429 32.1516 57.5731 30.8591 56.0617L29.6729 54.6745C27.6633 52.3247 26.0181 50.401 24.9881 48.7648C23.928 47.0808 23.2421 45.2752 23.8524 43.3126C24.4691 41.3295 26.0709 40.2663 27.9014 39.5449C29.6648 38.85 32.0861 38.3022 35.0252 37.6373L35.1844 37.6013C36.1944 37.3728 37.1984 38.0063 37.4269 39.0163Z" fill="#FCFCFC"/>
</svg>
