<svg width="101" height="100" viewBox="0 0 101 100" fill="none" xmlns="http://www.w3.org/2000/svg">
<rect x="0.5" width="100" height="100" rx="14" fill="#223E7F"/>
<path fill-rule="evenodd" clip-rule="evenodd" d="M50.5 58.125C51.5355 58.125 52.375 58.9645 52.375 60V67.5C52.375 68.5355 51.5355 69.375 50.5 69.375C49.4645 69.375 48.625 68.5355 48.625 67.5V60C48.625 58.9645 49.4645 58.125 50.5 58.125Z" fill="#FCFCFC"/>
<path fill-rule="evenodd" clip-rule="evenodd" d="M40.7595 70.392C41.1685 68.347 42.964 66.875 45.0495 66.875H55.9505C58.036 66.875 59.8316 68.347 60.2405 70.392L61.0886 74.6323C61.1988 75.1831 61.0562 75.7543 60.7 76.1887C60.3439 76.6231 59.8118 76.875 59.25 76.875H41.75C41.1883 76.875 40.6561 76.6231 40.3 76.1887C39.9439 75.7543 39.8013 75.1831 39.9114 74.6323L40.7595 70.392ZM45.0495 70.625C44.7516 70.625 44.4951 70.8353 44.4367 71.1274L44.0371 73.125H56.9629L56.5634 71.1274C56.5049 70.8353 56.2484 70.625 55.9505 70.625H45.0495Z" fill="#FCFCFC"/>
<path fill-rule="evenodd" clip-rule="evenodd" d="M69.7791 35.0707L67.4075 34.2802L68.5934 30.7227L70.9649 31.5132C70.9961 31.5236 71.0272 31.5339 71.0582 31.5443C72.216 31.9301 73.2308 32.2683 74.0359 32.6429C74.9062 33.0478 75.7039 33.5693 76.3137 34.4153C76.9234 35.2614 77.1659 36.183 77.2748 37.1367C77.3755 38.019 77.3754 39.0887 77.3753 40.3091L77.3753 40.5887C77.3753 40.6166 77.3753 40.6444 77.3753 40.6722C77.3753 41.6767 77.3753 42.5639 77.3012 43.3059C77.2208 44.1101 77.0428 44.892 76.5982 45.6476C76.1536 46.4031 75.5566 46.9384 74.8926 47.3992C74.28 47.8244 73.5044 48.2552 72.6263 48.743L65.161 52.8905L63.3398 49.6124L70.7321 45.5055C71.705 44.965 72.3141 44.6241 72.7546 44.3184C73.1606 44.0366 73.2929 43.8705 73.3662 43.7458C73.4396 43.6211 73.5206 43.4248 73.5698 42.933C73.6231 42.3996 73.6253 41.7015 73.6253 40.5886L73.6253 40.4072C73.6253 39.0595 73.6225 38.2062 73.549 37.562C73.4809 36.9657 73.3695 36.744 73.2715 36.6079C73.1734 36.4719 72.9983 36.2961 72.4541 36.0429C71.8663 35.7695 71.0576 35.4969 69.7791 35.0707Z" fill="#FCFCFC"/>
<path fill-rule="evenodd" clip-rule="evenodd" d="M30.0354 31.5132L32.4069 30.7227L33.5928 34.2802L31.2212 35.0707C29.9427 35.4969 29.1341 35.7695 28.5462 36.0429C28.002 36.2961 27.8269 36.4719 27.7288 36.6079C27.6308 36.744 27.5194 36.9657 27.4513 37.562C27.3778 38.2062 27.375 39.0595 27.375 40.4072L27.375 40.5886C27.375 41.7015 27.3772 42.3996 27.4305 42.933C27.4797 43.4248 27.5607 43.6211 27.6341 43.7458C27.7075 43.8705 27.8397 44.0366 28.2457 44.3184C28.6862 44.6241 29.2953 44.965 30.2682 45.5055L37.6605 49.6124L35.8393 52.8905L28.374 48.743C27.4959 48.2552 26.7203 47.8244 26.1077 47.3992C25.4437 46.9384 24.8467 46.4031 24.4021 45.6476C23.9575 44.892 23.7795 44.1101 23.6991 43.3059C23.625 42.5639 23.625 41.6767 23.625 40.6721C23.625 40.6444 23.625 40.6166 23.625 40.5887L23.625 40.4073C23.625 40.3745 23.625 40.3417 23.625 40.3091C23.6249 39.0886 23.6248 38.019 23.7255 37.1367C23.8344 36.183 24.0769 35.2614 24.6867 34.4153C25.2964 33.5693 26.0941 33.0478 26.9644 32.6429C27.7695 32.2683 28.7843 31.9301 29.9421 31.5442C29.9731 31.5339 30.0042 31.5236 30.0354 31.5132Z" fill="#FCFCFC"/>
<path fill-rule="evenodd" clip-rule="evenodd" d="M50.4993 35.0862C50.354 35.3378 50.1924 35.6276 50.0019 35.9692L49.7562 36.4101L48.1184 35.4972L49.7562 36.4101C49.7388 36.4412 49.7202 36.4752 49.7003 36.5116C49.504 36.8707 49.1789 37.4652 48.6368 37.8768C48.0833 38.2969 47.4176 38.4415 47.0283 38.526C46.9893 38.5345 46.9531 38.5423 46.92 38.5498L46.5063 36.721L46.92 38.5498L46.4428 38.6578C46.0048 38.7569 45.6481 38.8377 45.3431 38.9144C45.5415 39.1586 45.7992 39.4619 46.1344 39.8538L46.4598 40.2343C46.4829 40.2613 46.508 40.2902 46.5347 40.321C46.8045 40.6318 47.2402 41.1336 47.4417 41.7815C47.6408 42.4217 47.5721 43.0811 47.5288 43.4971C47.5244 43.5385 47.5204 43.5776 47.5168 43.614L47.4676 44.1216C47.422 44.5923 47.3866 44.968 47.363 45.2734C47.6235 45.1587 47.9198 45.0223 48.2719 44.8602L48.7188 44.6545C48.7495 44.6403 48.7832 44.6244 48.8197 44.6072C49.1784 44.438 49.8027 44.1436 50.4993 44.1436C51.196 44.1436 51.8202 44.438 52.179 44.6072C52.2154 44.6244 52.2491 44.6403 52.2799 44.6545L51.4957 46.3576L52.2799 44.6545L52.7268 44.8602C53.0788 45.0223 53.3752 45.1587 53.6357 45.2734C53.6121 44.968 53.5766 44.5923 53.531 44.1216L53.4818 43.614C53.4783 43.5776 53.4742 43.5385 53.4699 43.4971C53.4266 43.0811 53.3579 42.4217 53.557 41.7815C53.7585 41.1336 54.1941 40.6318 54.464 40.321C54.4907 40.2902 54.5158 40.2613 54.5389 40.2343L55.9639 41.4529L54.5389 40.2343L54.8643 39.8538C55.1995 39.4619 55.4572 39.1586 55.6556 38.9144C55.3506 38.8377 54.9938 38.7569 54.5559 38.6578L54.0786 38.5498C54.0456 38.5423 54.0094 38.5345 53.9704 38.526C53.5811 38.4415 52.9154 38.2969 52.3619 37.8768C51.8198 37.4652 51.4947 36.8707 51.2984 36.5116C51.2785 36.4752 51.2599 36.4412 51.2425 36.4101L50.9967 35.9692C50.8063 35.6276 50.6447 35.3378 50.4993 35.0862ZM53.651 46.2788C53.6509 46.2787 53.6514 46.276 53.6526 46.2709C53.6517 46.2764 53.6511 46.2789 53.651 46.2788ZM47.3477 46.2788C47.3476 46.2789 47.347 46.2764 47.346 46.2709C47.3473 46.276 47.3477 46.2787 47.3477 46.2788ZM48.0331 31.9991C48.4635 31.437 49.2451 30.625 50.4993 30.625C51.7536 30.625 52.5352 31.437 52.9656 31.9991C53.3764 32.5355 53.7901 33.2781 54.2143 34.0394C54.2336 34.074 54.2529 34.1087 54.2722 34.1433L54.518 34.5842C54.575 34.6865 54.6199 34.7669 54.6591 34.8357C54.7274 34.8518 54.8069 34.8698 54.9062 34.8923L55.3835 35.0002C55.4225 35.0091 55.4616 35.0179 55.5007 35.0268C56.3203 35.2119 57.1347 35.396 57.7599 35.6424C58.4503 35.9144 59.386 36.4443 59.7467 37.604C60.101 38.7433 59.6539 39.7084 59.2634 40.3287C58.9021 40.9027 58.3528 41.5447 57.7906 42.2019C57.7652 42.2316 57.7397 42.2613 57.7143 42.291L56.2893 41.0724L57.7143 42.291L57.3889 42.6715C57.3027 42.7723 57.2377 42.8484 57.183 42.9142C57.1904 43.005 57.2006 43.1108 57.2144 43.2523L57.2636 43.76C57.2673 43.7987 57.2711 43.8374 57.2748 43.876C57.3603 44.7558 57.4428 45.606 57.4125 46.2862C57.3808 46.9993 57.2096 48.0788 56.2417 48.8136C55.2432 49.5716 54.1404 49.4064 53.4411 49.206C52.7967 49.0214 52.0354 48.6706 51.2686 48.3173C51.2319 48.3004 51.1951 48.2834 51.1584 48.2665L51.9426 46.5634L51.1584 48.2665L50.7115 48.0608C50.6279 48.0223 50.5592 47.9907 50.4993 47.9635C50.4395 47.9907 50.3708 48.0223 50.2871 48.0608L49.503 46.3576L50.2871 48.0608L49.8403 48.2665C49.8036 48.2834 49.7668 48.3003 49.7301 48.3173C48.9633 48.6706 48.202 49.0214 47.5576 49.206C46.8583 49.4064 45.7555 49.5716 44.757 48.8136C43.7891 48.0788 43.6179 46.9993 43.5862 46.2862C43.5559 45.606 43.6384 44.7558 43.7239 43.876C43.7276 43.8374 43.7314 43.7987 43.7351 43.76L43.7843 43.2523C43.798 43.1108 43.8082 43.005 43.8157 42.9142C43.761 42.8484 43.696 42.7723 43.6098 42.6715L43.2844 42.291C43.259 42.2613 43.2335 42.2316 43.2081 42.2019C42.6458 41.5447 42.0966 40.9027 41.7352 40.3287C41.3448 39.7084 40.8977 38.7433 41.252 37.604C41.6126 36.4443 42.5484 35.9144 43.2388 35.6424C43.864 35.396 44.6784 35.2119 45.498 35.0268C45.537 35.0179 45.5761 35.0091 45.6152 35.0002L46.0925 34.8923C46.1918 34.8698 46.2713 34.8518 46.3396 34.8357C46.3788 34.7669 46.4237 34.6865 46.4807 34.5842L46.7265 34.1433C46.7458 34.1087 46.7651 34.074 46.7844 34.0394C47.2086 33.2781 47.6223 32.5355 48.0331 31.9991Z" fill="#FCFCFC"/>
<path fill-rule="evenodd" clip-rule="evenodd" d="M33.625 75C33.625 73.9645 34.4645 73.125 35.5 73.125H65.5C66.5355 73.125 67.375 73.9645 67.375 75C67.375 76.0355 66.5355 76.875 65.5 76.875H35.5C34.4645 76.875 33.625 76.0355 33.625 75Z" fill="#FCFCFC"/>
<path fill-rule="evenodd" clip-rule="evenodd" d="M39.2456 24.018C42.1528 23.5275 45.9307 23.125 50.5 23.125C52.3399 23.125 54.0517 23.1903 55.63 23.3003C56.663 23.3723 57.442 24.2681 57.37 25.3011C57.298 26.3341 56.4022 27.1132 55.3692 27.0412C53.8759 26.9371 52.2512 26.875 50.5 26.875C46.1515 26.875 42.5826 27.258 39.8695 27.7157C36.8522 28.2248 36.2183 28.4152 35.5536 29.234C34.8985 30.0408 34.8363 30.8039 34.9708 34.1918C35.195 39.8384 35.9398 45.9318 38.2467 50.566C39.3854 52.8536 40.8741 54.7217 42.8138 56.0226C44.741 57.3151 47.2273 58.125 50.5 58.125C53.7726 58.125 56.2589 57.3151 58.1861 56.0226C60.1258 54.7217 61.6145 52.8536 62.7533 50.566C65.0601 45.9318 65.805 39.8384 66.0291 34.1918C66.1636 30.8039 66.1014 30.0408 65.4463 29.234C64.9288 28.5966 64.3893 28.314 62.6481 27.9817C61.6309 27.7876 60.9637 26.8056 61.1578 25.7885C61.3519 24.7713 62.3339 24.1041 63.351 24.2982C65.3173 24.6734 66.9757 25.1683 68.3575 26.8702C70.0003 28.8935 69.9065 31.1716 69.7929 33.9305C69.7873 34.066 69.7817 34.2027 69.7762 34.3406C69.5485 40.0766 68.7919 46.8501 66.1103 52.2371C64.7548 54.9602 62.8776 57.3913 60.2749 59.137C57.6597 60.891 54.4272 61.875 50.5 61.875C46.5727 61.875 43.3402 60.891 40.725 59.137C38.1223 57.3913 36.2451 54.9602 34.8896 52.2371C32.208 46.8501 31.4515 40.0766 31.2237 34.3406C31.2183 34.2027 31.2126 34.066 31.207 33.9306C31.0934 31.1716 30.9996 28.8935 32.6424 26.8702C34.2837 24.8487 36.3829 24.4973 38.9084 24.0746C39.02 24.0559 39.1324 24.0371 39.2456 24.018Z" fill="#FCFCFC"/>
</svg>
