<svg width="24" height="24" viewBox="0 0 24 24" fill="none" xmlns="http://www.w3.org/2000/svg">
<g clip-path="url(#clip0_1664_5723)">
<path d="M22.237 16.8899V14.9296L13.7429 8.66366C13.7688 7.01222 13.7667 5.34166 13.7146 3.63845C13.6196 1.62611 12.8401 0 11.9998 0C11.1598 0 10.3803 1.62611 10.2854 3.63845C10.2333 5.34166 10.2311 7.01226 10.257 8.66366L1.7627 14.9297V16.8899L10.3956 13.334C10.504 15.9839 10.6365 18.6096 10.7318 21.2503L8.10368 22.7055V24L11.9998 23.3203L15.8957 24V22.7055L13.2681 21.2503C13.3631 18.6096 13.4953 15.9839 13.6044 13.334L22.237 16.8899Z" fill="#ff321b"/>
<path d="M5.55811 9.95523H7.1472V12.6227H5.55811V9.95523ZM16.8522 9.95523H18.4413V12.6227H16.8522V9.95523Z" fill="#ff321b"/>
</g>
<defs>
<clipPath id="clip0_1664_5723">
<rect width="24" height="24" fill="white"/>
</clipPath>
</defs>
</svg>
