<svg width="34" height="34" viewBox="0 0 34 34" fill="none" xmlns="http://www.w3.org/2000/svg">
<rect width="34" height="34" rx="17" fill="#223E7F"/>
<g clip-path="url(#clip0_401_4916)">
<path d="M13.3402 23.8387H13.8402V23.3387V14.7465V14.2465H13.3402H10.6684H10.1684V14.7465V23.3387V23.8387H10.6684H13.3402ZM23.3387 23.8387H23.8387V23.3387V18.6242C23.8387 17.4566 23.7182 16.307 23.1741 15.444C22.5966 14.5281 21.6108 14.032 20.1359 14.032C19.2974 14.032 18.6022 14.2926 18.0766 14.6685V14.2465H17.5766H15.0172H14.5172V14.7465V23.3387V23.8387H15.0172H17.682H18.182V23.3387V19.0918C18.182 18.5399 18.2387 18.1003 18.3993 17.8082C18.4731 17.6739 18.5661 17.5764 18.6885 17.5084C18.8138 17.4389 18.9996 17.384 19.2816 17.384C19.5446 17.384 19.697 17.4444 19.7907 17.5099C19.8855 17.5761 19.9636 17.6779 20.0251 17.8336C20.1595 18.174 20.1703 18.6424 20.1703 19.1621V23.3387V23.8387H20.6703H23.3387ZM9.32891 8.5H24.6676C25.1393 8.5 25.5 8.86919 25.5 9.29727V24.7027C25.5 25.1282 25.1385 25.5 24.6676 25.5H9.32891C8.86066 25.5 8.5 25.1307 8.5 24.6992V9.29727C8.5 8.86749 8.85888 8.5 9.32891 8.5ZM9.95391 12.0289C9.95391 13.1601 10.8711 14.0758 12.0043 14.0758C13.1355 14.0758 14.0512 13.1551 14.0512 12.0289C14.0512 10.8985 13.1347 9.98203 12.0043 9.98203C10.8711 9.98203 9.95391 10.8977 9.95391 12.0289Z" fill="#FCFCFC" stroke="#FCFCFC"/>
</g>
<defs>
<clipPath id="clip0_401_4916">
<rect width="18" height="18" fill="white" transform="translate(8 8)"/>
</clipPath>
</defs>
</svg>
