<svg width="34" height="34" viewBox="0 0 34 34" fill="none" xmlns="http://www.w3.org/2000/svg">
<rect width="34" height="34" rx="17" fill="#223E7F"/>
<g clip-path="url(#clip0_258_1523)">
<path d="M25.5 17C25.5 21.0387 22.6827 24.4202 18.9062 25.2854V20.1016H20.5033H20.9325L20.9975 19.6774L21.3966 17.0758L21.4849 16.5H20.9023H18.9062V15.3125C18.9062 15.0289 18.9765 14.8104 19.0986 14.6692C19.209 14.5415 19.4226 14.4062 19.873 14.4062H21.0078H21.5078V13.9062V11.6914V11.2695L21.0919 11.1985L21.0078 11.6914L21.0918 11.1985L21.0917 11.1985L21.0914 11.1984L21.0905 11.1983L21.0877 11.1978L21.0776 11.1961L21.0405 11.1901C21.0085 11.185 20.9624 11.1778 20.9043 11.1693C20.788 11.1522 20.6233 11.1295 20.427 11.1068C20.0366 11.0617 19.512 11.0156 18.9932 11.0156C17.8643 11.0156 16.8757 11.3596 16.1688 12.0672C15.4614 12.7752 15.0938 13.7896 15.0938 15.0172V16.5H13.3086H12.8086V17V19.6016V20.1016H13.3086H15.0938V25.2854C11.3173 24.4202 8.5 21.0387 8.5 17C8.5 12.3056 12.3056 8.5 17 8.5C21.6944 8.5 25.5 12.3056 25.5 17Z" fill="#FCFCFC" stroke="#FCFCFC"/>
</g>
<defs>
<clipPath id="clip0_258_1523">
<rect width="18" height="18" fill="white" transform="translate(8 8)"/>
</clipPath>
</defs>
</svg>
