<svg width="28" height="28" viewBox="0 0 28 28" fill="none" xmlns="http://www.w3.org/2000/svg">
<rect width="28" height="28" rx="14" fill="#FCFCFC"/>
<path d="M7.3414 10.6096C7.28112 12.1997 7.68354 14.9001 10.3924 17.6089C11.0459 18.2625 11.6989 18.7817 12.3359 19.1926M8.61744 8.11306C9.77823 6.95227 11.6302 7.10823 12.3673 8.42884L12.9081 9.39795C13.3962 10.2725 13.2003 11.4198 12.4315 12.1885C12.4315 12.1885 12.4315 12.1885 12.4315 12.1885C12.4314 12.1886 11.4992 13.1211 13.1897 14.8116C14.8796 16.5015 15.812 15.5706 15.8128 15.5698C15.8128 15.5698 15.8128 15.5698 15.8128 15.5697C16.5815 14.801 17.7288 14.6051 18.6034 15.0932L19.5725 15.634C20.8931 16.3711 21.049 18.2231 19.8882 19.3839C19.1907 20.0814 18.3363 20.6241 17.3917 20.6599C16.7133 20.6856 15.8329 20.6271 14.8359 20.3413" stroke="#FF321B" stroke-width="1.5" stroke-linecap="round"/>
</svg>
