<svg width="28" height="28" viewBox="0 0 28 28" fill="none" xmlns="http://www.w3.org/2000/svg">
<rect width="28" height="28" rx="14" fill="#FCFCFC"/>
<path d="M14.4167 9.8666C14.2812 9.84386 14.142 9.83203 14 9.83203C12.6193 9.83203 11.5 10.9513 11.5 12.332C11.5 13.7127 12.6193 14.832 14 14.832C15.3807 14.832 16.5 13.7127 16.5 12.332C16.5 12.1901 16.4882 12.0509 16.4654 11.9154" stroke="#FF321B" stroke-width="1.5" stroke-linecap="round"/>
<path d="M8.16927 16.6814C7.62972 15.3031 7.33594 13.8357 7.33594 12.454C7.33594 8.7062 10.3207 5.66797 14.0026 5.66797C17.6845 5.66797 20.6693 8.7062 20.6693 12.454C20.6693 16.1725 18.5415 20.5116 15.2217 22.0633C14.4478 22.4251 13.5574 22.4251 12.7835 22.0633C11.7232 21.5678 10.7845 20.7878 9.99792 19.8346" stroke="#FF321B" stroke-width="1.5" stroke-linecap="round"/>
</svg>
