<svg width="28" height="28" viewBox="0 0 28 28" fill="none" xmlns="http://www.w3.org/2000/svg">
<rect width="28" height="28" rx="14" fill="#FCFCFC"/>
<path d="M22.3307 13.9987C22.3307 17.1414 22.3307 18.7127 21.3544 19.6891C20.3781 20.6654 18.8068 20.6654 15.6641 20.6654H12.3307C9.18803 20.6654 7.61668 20.6654 6.64037 19.6891C5.66406 18.7127 5.66406 17.1414 5.66406 13.9987C5.66406 10.856 5.66406 9.28465 6.64037 8.30834C7.61668 7.33203 9.18803 7.33203 12.3307 7.33203H15.6641C18.8068 7.33203 20.3781 7.33203 21.3544 8.30834C21.8987 8.85266 22.1396 9.58194 22.2462 10.6654" stroke="#FF321B" stroke-width="1.5" stroke-linecap="round"/>
<path d="M19 10.668L17.2009 12.1672C15.6704 13.4426 14.9051 14.0804 14 14.0804C13.4589 14.0804 12.9678 13.8525 12.3333 13.3967M9 10.668L9.75 11.293L10.5 11.918" stroke="#FF321B" stroke-width="1.5" stroke-linecap="round"/>
</svg>
