<svg width="61" height="60" viewBox="0 0 61 60" fill="none" xmlns="http://www.w3.org/2000/svg">
<path d="M55.1355 43.102C55.4317 43.1022 55.7154 42.9778 55.938 42.7559C56.1601 42.5344 56.3081 42.2293 56.3597 41.8951L58.0992 30.6413L58.1004 30.6337V30.626C58.1004 23.7653 53.4447 18.15 47.6872 18.15H39.2487C38.9605 18.1498 38.6838 18.2675 38.4636 18.4787C38.2437 18.6895 38.0927 18.9812 38.0321 19.3041L33.8656 41.3057L33.8655 41.3058L55.1356 43.002M55.1355 43.102L55.1356 43.002M55.1355 43.102H55.1356V43.002M55.1355 43.102H52.2708C51.9339 43.102 51.6154 42.9412 51.3837 42.6632C51.1525 42.3858 51.0249 42.0128 51.0249 41.6268C51.0249 41.2409 51.1525 40.8679 51.3837 40.5905C51.6154 40.3125 51.9339 40.1517 52.2708 40.1517H54.0989M55.1356 43.002H52.2708C51.9669 43.002 51.6755 42.8571 51.4606 42.5992C51.2457 42.3413 51.1249 41.9915 51.1249 41.6268C51.1249 41.2621 51.2457 40.9124 51.4606 40.6545C51.6755 40.3966 51.9669 40.2517 52.2708 40.2517H54.1845M54.0989 40.1517L54.0857 40.2363L54.1845 40.2517M54.0989 40.1517H54.1845V40.2517M54.0989 40.1517L55.6292 30.3654C55.6049 25.3528 52.0381 21.1002 47.6872 21.1002H40.246L36.6376 40.1517H43.1036C43.4405 40.1517 43.759 40.3125 43.9907 40.5905C44.2219 40.8679 44.3495 41.2409 44.3495 41.6268C44.3495 42.0128 44.2219 42.3858 43.9907 42.6632C43.759 42.9412 43.4405 43.102 43.1036 43.102H35.0823H35.0822V43.002L54.1845 40.2517M13.31 43.102H17.8936C18.2305 43.102 18.5491 42.9412 18.7807 42.6632C19.0119 42.3858 19.1395 42.0128 19.1395 41.6268C19.1395 41.2409 19.0119 40.8679 18.7807 40.5905C18.5491 40.3125 18.2305 40.1517 17.8936 40.1517H13.31C12.973 40.1517 12.6545 40.3125 12.4229 40.5905C12.1917 40.8679 12.0641 41.2409 12.0641 41.6268C12.0641 42.0128 12.1917 42.3858 12.4229 42.6632C12.6545 42.9412 12.973 43.102 13.31 43.102Z" fill="#FCFCFC" stroke="#FCFCFC" stroke-width="0.2"/>
<path d="M41.8609 41.6271C41.8609 45.457 44.4608 48.6026 47.6904 48.6026C50.92 48.6026 53.5199 45.457 53.5199 41.6271C53.5199 37.7971 50.92 34.6515 47.6904 34.6515C44.4608 34.6515 41.8609 37.7971 41.8609 41.6271ZM44.3527 41.6271C44.3527 39.39 45.8666 37.6017 47.6904 37.6017C49.5142 37.6017 51.0281 39.39 51.0281 41.6271C51.0281 43.8641 49.5142 45.6524 47.6904 45.6524C45.8666 45.6524 44.3527 43.8641 44.3527 41.6271ZM16.6509 41.6271C16.6509 45.457 19.2508 48.6026 22.4804 48.6026C25.7101 48.6026 28.31 45.457 28.31 41.6271C28.31 37.7971 25.7101 34.6515 22.4804 34.6515C19.2508 34.6515 16.6509 37.7971 16.6509 41.6271ZM19.1427 41.6271C19.1427 39.39 20.6566 37.6017 22.4804 37.6017C24.3042 37.6017 25.8182 39.39 25.8182 41.6271C25.8182 43.8641 24.3042 45.6524 22.4804 45.6524C20.6566 45.6524 19.1427 43.8641 19.1427 41.6271ZM8.72954 18.3502H17.8968C18.2337 18.3502 18.5523 18.1895 18.7839 17.9115C19.0151 17.634 19.1427 17.261 19.1427 16.8751C19.1427 16.4892 19.0151 16.1162 18.7839 15.8387C18.5523 15.5608 18.2337 15.4 17.8968 15.4H8.72954C8.39261 15.4 8.07409 15.5608 7.84244 15.8387C7.61123 16.1162 7.48363 16.4892 7.48363 16.8751C7.48363 17.261 7.61123 17.634 7.84244 17.9115C8.07409 18.1895 8.39261 18.3502 8.72954 18.3502ZM6.43772 26.6009H17.8968C18.2337 26.6009 18.5523 26.4401 18.7839 26.1621C19.0151 25.8847 19.1427 25.5117 19.1427 25.1258C19.1427 24.7398 19.0151 24.3668 18.7839 24.0894C18.5523 23.8114 18.2337 23.6507 17.8968 23.6507H6.43772C6.10079 23.6507 5.78227 23.8114 5.55062 24.0894C5.31941 24.3668 5.19182 24.7398 5.19182 25.1258C5.19182 25.5117 5.31941 25.8847 5.55062 26.1621C5.78227 26.4401 6.10079 26.6009 6.43772 26.6009ZM4.14591 34.8515H17.8968C18.2337 34.8515 18.5523 34.6908 18.7839 34.4128C19.0151 34.1353 19.1427 33.7623 19.1427 33.3764C19.1427 32.9905 19.0151 32.6175 18.7839 32.34C18.5523 32.0621 18.2337 31.9013 17.8968 31.9013H4.14591C3.80898 31.9013 3.49046 32.0621 3.25881 32.34C3.0276 32.6175 2.9 32.9905 2.9 33.3764C2.9 33.7623 3.0276 34.1353 3.25881 34.4128C3.49046 34.6908 3.80898 34.8515 4.14591 34.8515Z" fill="#FCFCFC" stroke="#FCFCFC" stroke-width="0.2"/>
<path d="M42.0284 11.6961L42.0284 11.6962L36.2989 41.9485C36.2382 42.2714 36.0872 42.5631 35.8674 42.7739C35.6472 42.9851 35.3704 43.1028 35.0822 43.1026M42.0284 11.6961L35.0822 43.0026M42.0284 11.6961C42.0686 11.4825 42.0682 11.2609 42.0272 11.0475C41.9862 10.8341 41.9056 10.6335 41.7903 10.4606C41.6751 10.2878 41.5278 10.1466 41.3584 10.0489C41.1888 9.9512 41.0019 9.89989 40.8118 9.9H13.31C12.973 9.9 12.6545 10.0608 12.4229 10.3387C12.1917 10.6162 12.0641 10.9892 12.0641 11.3751C12.0641 11.761 12.1917 12.134 12.4229 12.4115C12.6545 12.6895 12.973 12.8502 13.31 12.8502H39.2541L34.0849 40.1524M42.0284 11.6961L34.1678 40.2524M35.0822 43.1026L35.0822 43.0026M35.0822 43.1026H35.0822V43.0026M35.0822 43.1026H27.0609C26.7239 43.1026 26.4054 42.9419 26.1738 42.6639C25.9426 42.3864 25.815 42.0134 25.815 41.6275C25.815 41.2416 25.9426 40.8686 26.1738 40.5911C26.4054 40.3131 26.7239 40.1524 27.0609 40.1524H34.0849M35.0822 43.0026H27.0609C26.7569 43.0026 26.4655 42.8577 26.2506 42.5998C26.0357 42.342 25.915 41.9922 25.915 41.6275C25.915 41.2628 26.0357 40.913 26.2506 40.6552C26.4655 40.3973 26.7569 40.2524 27.0609 40.2524H34.1678M34.0849 40.1524L34.0695 40.2338L34.1678 40.2524M34.0849 40.1524H34.1678V40.2524" fill="#FCFCFC" stroke="#FCFCFC" stroke-width="0.2"/>
</svg>
