<svg width="57" height="40" viewBox="0 0 57 40" fill="none" xmlns="http://www.w3.org/2000/svg">
<path d="M53.1355 34.102C53.4317 34.1022 53.7154 33.9778 53.938 33.7559C54.1601 33.5344 54.3081 33.2293 54.3597 32.8951L56.0992 21.6413L56.1004 21.6337V21.626C56.1004 14.7653 51.4447 9.15 45.6872 9.15H37.2487C36.9605 9.14984 36.6838 9.26754 36.4636 9.47873C36.2437 9.68955 36.0927 9.98118 36.0321 10.3041L31.8656 32.3057L31.8655 32.3058L53.1356 34.002M53.1355 34.102L53.1356 34.002M53.1355 34.102H53.1356V34.002M53.1355 34.102H50.2708C49.9339 34.102 49.6154 33.9412 49.3837 33.6632C49.1525 33.3858 49.0249 33.0128 49.0249 32.6268C49.0249 32.2409 49.1525 31.8679 49.3837 31.5905C49.6154 31.3125 49.9339 31.1517 50.2708 31.1517H52.0989M53.1356 34.002H50.2708C49.9669 34.002 49.6755 33.8571 49.4606 33.5992C49.2457 33.3413 49.1249 32.9915 49.1249 32.6268C49.1249 32.2621 49.2457 31.9124 49.4606 31.6545C49.6755 31.3966 49.9669 31.2517 50.2708 31.2517H52.1845M52.0989 31.1517L52.0857 31.2363L52.1845 31.2517M52.0989 31.1517H52.1845V31.2517M52.0989 31.1517L53.6292 21.3654C53.6049 16.3528 50.0381 12.1002 45.6872 12.1002H38.246L34.6376 31.1517H41.1036C41.4405 31.1517 41.759 31.3125 41.9907 31.5905C42.2219 31.8679 42.3495 32.2409 42.3495 32.6268C42.3495 33.0128 42.2219 33.3858 41.9907 33.6632C41.759 33.9412 41.4405 34.102 41.1036 34.102H33.0823H33.0822V34.002L52.1845 31.2517M11.31 34.102H15.8936C16.2305 34.102 16.5491 33.9412 16.7807 33.6632C17.0119 33.3858 17.1395 33.0128 17.1395 32.6268C17.1395 32.2409 17.0119 31.8679 16.7807 31.5905C16.5491 31.3125 16.2305 31.1517 15.8936 31.1517H11.31C10.973 31.1517 10.6545 31.3125 10.4229 31.5905C10.1917 31.8679 10.0641 32.2409 10.0641 32.6268C10.0641 33.0128 10.1917 33.3858 10.4229 33.6632C10.6545 33.9412 10.973 34.102 11.31 34.102Z" fill="#FCFCFC" stroke="#FCFCFC" stroke-width="0.2"/>
<path d="M39.8609 32.6271C39.8609 36.457 42.4608 39.6026 45.6904 39.6026C48.92 39.6026 51.5199 36.457 51.5199 32.6271C51.5199 28.7971 48.92 25.6515 45.6904 25.6515C42.4608 25.6515 39.8609 28.7971 39.8609 32.6271ZM42.3527 32.6271C42.3527 30.39 43.8666 28.6017 45.6904 28.6017C47.5142 28.6017 49.0281 30.39 49.0281 32.6271C49.0281 34.8641 47.5142 36.6524 45.6904 36.6524C43.8666 36.6524 42.3527 34.8641 42.3527 32.6271ZM14.6509 32.6271C14.6509 36.457 17.2508 39.6026 20.4804 39.6026C23.7101 39.6026 26.31 36.457 26.31 32.6271C26.31 28.7971 23.7101 25.6515 20.4804 25.6515C17.2508 25.6515 14.6509 28.7971 14.6509 32.6271ZM17.1427 32.6271C17.1427 30.39 18.6566 28.6017 20.4804 28.6017C22.3042 28.6017 23.8182 30.39 23.8182 32.6271C23.8182 34.8641 22.3042 36.6524 20.4804 36.6524C18.6566 36.6524 17.1427 34.8641 17.1427 32.6271ZM6.72954 9.35022H15.8968C16.2337 9.35022 16.5523 9.18946 16.7839 8.91148C17.0151 8.63402 17.1427 8.26103 17.1427 7.87511C17.1427 7.48918 17.0151 7.1162 16.7839 6.83874C16.5523 6.56075 16.2337 6.4 15.8968 6.4H6.72954C6.39261 6.4 6.07409 6.56075 5.84244 6.83874C5.61123 7.1162 5.48363 7.48918 5.48363 7.87511C5.48363 8.26103 5.61123 8.63402 5.84244 8.91148C6.07409 9.18946 6.39261 9.35022 6.72954 9.35022ZM4.43772 17.6009H15.8968C16.2337 17.6009 16.5523 17.4401 16.7839 17.1621C17.0151 16.8847 17.1427 16.5117 17.1427 16.1258C17.1427 15.7398 17.0151 15.3668 16.7839 15.0894C16.5523 14.8114 16.2337 14.6507 15.8968 14.6507H4.43772C4.10079 14.6507 3.78227 14.8114 3.55062 15.0894C3.31941 15.3668 3.19182 15.7398 3.19182 16.1258C3.19182 16.5117 3.31941 16.8847 3.55062 17.1621C3.78227 17.4401 4.10079 17.6009 4.43772 17.6009ZM2.14591 25.8515H15.8968C16.2337 25.8515 16.5523 25.6908 16.7839 25.4128C17.0151 25.1353 17.1427 24.7623 17.1427 24.3764C17.1427 23.9905 17.0151 23.6175 16.7839 23.34C16.5523 23.0621 16.2337 22.9013 15.8968 22.9013H2.14591C1.80898 22.9013 1.49046 23.0621 1.25881 23.34C1.0276 23.6175 0.9 23.9905 0.9 24.3764C0.9 24.7623 1.0276 25.1353 1.25881 25.4128C1.49046 25.6908 1.80898 25.8515 2.14591 25.8515Z" fill="#FCFCFC" stroke="#FCFCFC" stroke-width="0.2"/>
<path d="M40.0284 2.6961L40.0284 2.69624L34.2989 32.9485C34.2382 33.2714 34.0872 33.5631 33.8674 33.7739C33.6472 33.9851 33.3704 34.1028 33.0822 34.1026M40.0284 2.6961L33.0822 34.0026M40.0284 2.6961C40.0686 2.48248 40.0682 2.2609 40.0272 2.0475C39.9862 1.8341 39.9056 1.63345 39.7903 1.46062C39.6751 1.28776 39.5278 1.14658 39.3584 1.04893C39.1888 0.951198 39.0019 0.899886 38.8118 0.9H11.31C10.973 0.9 10.6545 1.06076 10.4229 1.33874C10.1917 1.6162 10.0641 1.98918 10.0641 2.37511C10.0641 2.76103 10.1917 3.13402 10.4229 3.41148C10.6545 3.68946 10.973 3.85022 11.31 3.85022H37.2541L32.0849 31.1524M40.0284 2.6961L32.1678 31.2524M33.0822 34.1026L33.0822 34.0026M33.0822 34.1026H33.0822V34.0026M33.0822 34.1026H25.0609C24.7239 34.1026 24.4054 33.9419 24.1738 33.6639C23.9426 33.3864 23.815 33.0134 23.815 32.6275C23.815 32.2416 23.9426 31.8686 24.1738 31.5911C24.4054 31.3131 24.7239 31.1524 25.0609 31.1524H32.0849M33.0822 34.0026H25.0609C24.7569 34.0026 24.4655 33.8577 24.2506 33.5998C24.0357 33.342 23.915 32.9922 23.915 32.6275C23.915 32.2628 24.0357 31.913 24.2506 31.6552C24.4655 31.3973 24.7569 31.2524 25.0609 31.2524H32.1678M32.0849 31.1524L32.0695 31.2338L32.1678 31.2524M32.0849 31.1524H32.1678V31.2524" fill="#FCFCFC" stroke="#FCFCFC" stroke-width="0.2"/>
</svg>
