<svg width="34" height="34" viewBox="0 0 34 34" fill="none" xmlns="http://www.w3.org/2000/svg">
<rect width="34" height="34" rx="17" fill="#223E7F"/>
<g clip-path="url(#clip0_257_2404)">
<path d="M23.3387 10.6543L23.6922 10.3007C24.0586 10.6671 24.29 11.0252 24.4765 11.5076C24.6187 11.8735 24.7779 12.4052 24.819 13.3357M23.3387 10.6543L24.3195 13.3578M23.3387 10.6543L23.6922 10.3007C23.3298 9.93834 22.9685 9.70325 22.4858 9.51663C22.1202 9.37448 21.592 9.21508 20.6574 9.17393L23.3387 10.6543ZM24.819 13.3357L24.3195 13.3578M24.819 13.3357C24.819 13.3357 24.819 13.3357 24.819 13.3356L24.3195 13.3578M24.819 13.3357C24.8617 14.2957 24.8723 14.5891 24.8723 16.993C24.8723 19.4004 24.8617 19.6938 24.819 20.6504M24.3195 13.3578C24.3617 14.307 24.3723 14.5918 24.3723 16.993C24.3723 19.3977 24.3617 19.6824 24.3195 20.6281M24.819 20.6504C24.819 20.6503 24.819 20.6502 24.819 20.6501L24.3195 20.6281M24.819 20.6504C24.7779 21.5846 24.6186 22.1127 24.4765 22.4783M24.819 20.6504L24.3195 20.6281M24.3195 20.6281L24.4765 22.4783M11.5146 24.4695C11.0318 24.2828 10.6703 24.0477 10.3078 23.6852C9.94155 23.319 9.71012 22.961 9.52366 22.4788C9.3814 22.1129 9.2221 21.5812 9.18096 20.6503L11.5146 24.4695ZM11.5146 24.4695C11.8803 24.6116 12.4084 24.7709 13.3426 24.812M11.5146 24.4695L13.3426 24.812M11.5142 9.51663C11.032 9.70309 10.674 9.93451 10.3078 10.3007C9.94537 10.6631 9.71028 11.0245 9.52366 11.5071C9.38151 11.8728 9.22212 12.401 9.18097 13.3355L11.5142 9.51663ZM11.5142 9.51663C11.8801 9.37438 12.4118 9.21507 13.3426 9.17393L11.5142 9.51663ZM24.4765 22.4783C24.2899 22.9612 24.0547 23.3227 23.6922 23.6852C23.3259 24.0515 22.9678 24.283 22.4854 24.4695C22.1195 24.6117 21.5878 24.7709 20.6572 24.812M24.4765 22.4783L20.6572 24.812M9.86404 9.86652L9.86403 9.86651C9.41579 10.3116 9.14625 10.7535 8.93698 11.2858C8.73702 11.8036 8.59225 12.4032 8.55226 13.3094L9.86404 9.86652ZM9.86404 9.86652L9.86651 9.86403M9.86404 9.86652L9.86651 9.86403M9.86651 9.86403C10.3118 9.41565 10.7537 9.14622 11.2894 8.93697M9.86651 9.86403L11.2894 8.93697M9.86403 24.1335L9.86528 24.1347C10.3123 24.5818 10.755 24.8541 11.2846 25.059L9.86403 24.1335ZM9.86403 24.1335C9.41566 23.6883 9.14623 23.2464 8.93698 22.7107M9.86403 24.1335L8.93698 22.7107M22.7074 25.0594L22.7083 25.0591C23.2379 24.8542 23.6806 24.5818 24.1277 24.1347C24.5748 23.6876 24.8471 23.2449 25.052 22.7153C25.2522 22.1973 25.3972 21.5974 25.4372 20.6905C25.4372 20.6905 25.4372 20.6905 25.4372 20.6905L25.9367 20.7125L22.7074 25.0594ZM22.7074 25.0594C22.194 25.2591 21.591 25.4042 20.6835 25.4442L22.7074 25.0594ZM25.0495 11.2851L25.0495 11.2851C24.8519 10.7517 24.5844 10.3118 24.136 9.86651L24.1347 9.86527C23.6877 9.41823 23.245 9.1459 22.7154 8.94099L25.0495 11.2851ZM25.0495 11.2851L25.0524 11.2926M25.0495 11.2851L25.0524 11.2926M25.0524 11.2926C25.252 11.806 25.3972 12.409 25.4372 13.3165L25.0524 11.2926ZM20.6905 8.55576L20.6888 8.55569C19.7374 8.51055 19.4409 8.5 17 8.5C14.5593 8.5 14.2619 8.51054 13.3131 8.55225L20.6905 8.55576ZM20.6905 8.55576C21.5974 8.59577 22.1973 8.74073 22.7153 8.94092L20.6905 8.55576ZM17 9.1207C19.4072 9.1207 19.7007 9.13126 20.6571 9.17392L17 9.1207ZM17 9.1207C14.5927 9.1207 14.2993 9.13126 13.3428 9.17392L17 9.1207ZM20.6572 24.812C19.6972 24.8547 19.4039 24.8652 17 24.8652C14.5925 24.8652 14.2992 24.8547 13.3426 24.812M20.6572 24.812L13.3426 24.812M11.2894 8.93697C11.8028 8.73735 12.4057 8.59229 13.313 8.55225L11.2894 8.93697ZM8.93698 22.7107C8.73736 22.1973 8.59229 21.5944 8.55225 20.687L8.93698 22.7107ZM9.12773 16.993C9.12773 19.3968 9.13829 19.6902 9.18096 20.6502L9.18095 13.3358C9.13829 14.2922 9.12773 14.5858 9.12773 16.993ZM8.5 17C8.5 14.5594 8.51054 14.2619 8.55225 13.3095V20.6869C8.51054 19.7381 8.5 19.4407 8.5 17Z" fill="#FCFCFC" stroke="#FCFCFC"/>
<path d="M16.998 12.375C14.4457 12.375 12.375 14.4457 12.375 16.998C12.375 19.5504 14.4457 21.6211 16.998 21.6211C19.5504 21.6211 21.6211 19.5504 21.6211 16.998C21.6211 14.4457 19.5504 12.375 16.998 12.375ZM16.998 19.9969C15.3422 19.9969 13.9992 18.6539 13.9992 16.998C13.9992 15.3422 15.3422 13.9992 16.998 13.9992C18.6539 13.9992 19.9969 15.3422 19.9969 16.998C19.9969 18.6539 18.6539 19.9969 16.998 19.9969Z" fill="#FCFCFC"/>
<path d="M22.8852 12.1926C22.8852 12.7902 22.4 13.2719 21.8059 13.2719C21.2082 13.2719 20.7266 12.7867 20.7266 12.1926C20.7266 11.5949 21.2117 11.1133 21.8059 11.1133C22.4 11.1133 22.8852 11.5984 22.8852 12.1926Z" fill="#FCFCFC"/>
</g>
<defs>
<clipPath id="clip0_257_2404">
<rect width="18" height="18" fill="white" transform="translate(8 8)"/>
</clipPath>
</defs>
</svg>
