<svg width="40" height="40" viewBox="0 0 40 40" fill="none" xmlns="http://www.w3.org/2000/svg">
<rect width="40" height="40" rx="20" fill="#D6E7FF"/>
<path fill-rule="evenodd" clip-rule="evenodd" d="M13.4697 13.4697C13.7626 13.1768 14.2374 13.1768 14.5303 13.4697L20 18.9394L25.4697 13.4697C25.7626 13.1768 26.2374 13.1768 26.5303 13.4697C26.8232 13.7626 26.8232 14.2375 26.5303 14.5304L21.0607 20L26.5303 25.4696C26.8232 25.7625 26.8232 26.2374 26.5303 26.5303C26.2374 26.8232 25.7625 26.8232 25.4696 26.5303L20 21.0607L14.5304 26.5303C14.2375 26.8232 13.7626 26.8232 13.4697 26.5303C13.1768 26.2374 13.1768 25.7626 13.4697 25.4697L18.9394 20L13.4697 14.5303C13.1768 14.2374 13.1768 13.7626 13.4697 13.4697Z" fill="#012756"/>
</svg>
