<svg width="24" height="24" viewBox="0 0 24 24" fill="none" xmlns="http://www.w3.org/2000/svg">
<path fill-rule="evenodd" clip-rule="evenodd" d="M18.5303 5.46967C18.2374 5.17678 17.7626 5.17678 17.4697 5.46967L12 10.9394L6.53033 5.46972C6.23744 5.17683 5.76256 5.17683 5.46967 5.46972C5.17678 5.76261 5.17678 6.23749 5.46967 6.53038L10.9393 12L5.46972 17.4696C5.17683 17.7625 5.17683 18.2374 5.46972 18.5303C5.76261 18.8232 6.23749 18.8232 6.53038 18.5303L12 13.0607L17.4696 18.5303C17.7625 18.8232 18.2374 18.8232 18.5303 18.5303C18.8232 18.2374 18.8232 17.7626 18.5303 17.4697L13.0606 12L18.5303 6.53033C18.8232 6.23744 18.8232 5.76256 18.5303 5.46967Z" fill="#FCFCFC"/>
</svg>
