<svg width="398" height="200" viewBox="0 0 398 200" fill="none" xmlns="http://www.w3.org/2000/svg">
<path d="M141.828 109.516C142.783 108.788 143.929 108.177 145.099 107.603C146.315 107.027 147.562 106.517 148.833 106.073C151.514 105.153 154.264 104.444 157.056 103.955C162.774 102.936 168.789 102.695 174.695 103.015C180.509 103.362 186.283 104.212 191.95 105.557C193.332 105.889 194.72 106.218 196.064 106.607C196.742 106.791 197.418 106.98 198.092 107.173C198.763 107.37 199.419 107.583 200.083 107.787L202.064 108.41L204.003 109.084L207.65 110.377C212.262 112.022 216.964 113.401 221.734 114.507C222.336 114.643 222.944 114.763 223.55 114.892C224.156 115.022 224.757 115.164 225.371 115.264L227.206 115.6C227.817 115.723 228.436 115.798 229.053 115.9C230.285 116.111 231.531 116.25 232.77 116.419C233.394 116.495 234.021 116.548 234.649 116.616L235.593 116.713L236.54 116.786C239.067 116.996 241.619 117.098 244.197 117.093C246.773 117.093 249.368 116.999 251.986 116.77C257.211 116.328 262.489 115.499 267.719 114.021C265.921 115.542 263.665 116.797 261.286 117.924C258.8 119.068 256.23 120.021 253.6 120.775C250.832 121.574 248.015 122.197 245.168 122.639C243.714 122.874 242.248 123.027 240.77 123.186L238.545 123.348C237.8 123.412 237.055 123.419 236.307 123.454L235.186 123.498C234.811 123.506 234.437 123.498 234.064 123.506C233.316 123.506 232.565 123.506 231.817 123.506C230.325 123.454 228.819 123.424 227.336 123.297C224.348 123.108 221.41 122.714 218.504 122.246C212.872 121.275 207.334 119.821 201.951 117.901L198.263 116.567L196.541 115.921L194.794 115.321C194.212 115.12 193.636 114.91 193.051 114.716C192.466 114.522 191.874 114.341 191.288 114.148C190.123 113.749 188.927 113.416 187.746 113.049C182.949 111.616 178.076 110.456 173.148 109.575C168.162 108.73 163.046 108.143 157.798 108.065C152.549 107.988 147.191 108.306 141.828 109.516Z" fill="#FF321B"/>
<path d="M128 121.234C128.932 120.385 129.943 119.626 131.02 118.971C132.152 118.262 133.322 117.617 134.525 117.038C137.086 115.817 139.751 114.825 142.486 114.071L143.548 113.78C143.905 113.686 144.267 113.604 144.625 113.516C145.346 113.34 146.076 113.182 146.815 113.044C147.552 112.904 148.287 112.747 149.042 112.65C149.796 112.553 150.541 112.414 151.304 112.338C152.066 112.262 152.823 112.161 153.589 112.108L155.89 111.956C156.66 111.93 157.431 111.919 158.202 111.901C158.588 111.886 158.973 111.901 159.359 111.901L160.516 111.924C163.573 112.005 166.619 112.313 169.631 112.845L170.744 113.041L171.838 113.275C172.568 113.437 173.292 113.589 174.011 113.761C175.425 114.152 176.854 114.508 178.198 114.99C178.88 115.213 179.552 115.452 180.221 115.688C180.89 115.924 181.525 116.204 182.16 116.474C183.466 116.982 184.665 117.606 185.877 118.198C186.483 118.494 187.051 118.828 187.622 119.157C188.192 119.485 188.753 119.815 189.305 120.156C190.385 120.856 191.414 121.593 192.39 122.357C190.962 122.033 189.614 121.653 188.268 121.289C187.578 121.128 186.907 120.948 186.234 120.778C185.56 120.609 184.912 120.411 184.225 120.269L182.218 119.784C181.561 119.613 180.888 119.472 180.218 119.331C179.547 119.191 178.888 119.039 178.229 118.89C177.569 118.741 176.884 118.646 176.223 118.51L175.231 118.325C174.908 118.259 174.561 118.217 174.228 118.164L172.236 117.824C171.568 117.726 170.894 117.651 170.234 117.548L169.238 117.404L168.235 117.299C167.563 117.239 166.903 117.137 166.234 117.079L164.229 116.917L163.728 116.873L163.227 116.847L162.222 116.797L161.22 116.739C160.886 116.726 160.55 116.725 160.215 116.715C159.546 116.704 158.876 116.663 158.207 116.674H156.2L154.188 116.729C153.516 116.747 152.85 116.809 152.176 116.831C151.503 116.854 150.835 116.925 150.163 116.974C149.491 117.022 148.822 117.088 148.15 117.156C147.815 117.192 147.476 117.218 147.143 117.26C146.81 117.302 146.476 117.349 146.14 117.386C145.803 117.423 145.464 117.46 145.13 117.506L144.126 117.653C141.442 118.037 138.759 118.528 136.078 119.126C133.392 119.731 130.718 120.413 128 121.234Z" fill="#025ACC"/>
<path d="M182.9 98.9292C184.816 98.555 186.754 98.3055 188.701 98.1821C190.671 98.0431 192.663 98.0091 194.652 98.0641C198.605 98.1929 202.543 98.6084 206.435 99.3076C208.355 99.6552 210.25 100.027 212.157 100.498C214.064 100.968 215.873 101.468 217.636 102L222.825 103.559C224.513 104.057 226.191 104.548 227.834 104.935C234.288 106.534 241.255 106.99 248.376 106.455C255.497 105.92 262.681 104.435 270.008 102.6C268.622 103.615 267.155 104.514 265.622 105.289C264.845 105.703 264.048 106.097 263.226 106.476C262.817 106.67 262.402 106.851 261.987 107.039L260.71 107.562C257.131 108.999 253.421 110.085 249.633 110.808C245.59 111.58 241.478 111.927 237.363 111.844C233.203 111.769 229.065 111.232 225.024 110.242C223.054 109.768 221.23 109.205 219.444 108.625C217.659 108.044 215.948 107.432 214.274 106.83C212.6 106.228 210.96 105.632 209.329 105.082C208.512 104.801 207.713 104.544 206.863 104.273C206.014 104.003 205.186 103.745 204.341 103.492C200.966 102.467 197.522 101.567 193.974 100.786C190.425 100.005 186.761 99.4127 182.9 98.9292Z" fill="#025ACC"/>
<path d="M134.528 132.945C132.955 133.012 132.65 133.477 132.65 135.176V149.016H132.117L122.384 133.958V146.201C122.384 147.899 122.69 148.363 124.485 148.431V148.896C123.931 148.85 122.911 148.829 122.119 148.829C121.328 148.829 120.478 148.85 119.969 148.896V148.431C121.543 148.363 121.848 147.899 121.848 146.201V134.938C121.848 133.25 121.543 133.012 119.969 132.945V132.48C120.478 132.526 121.339 132.548 122.119 132.548C122.798 132.548 123.42 132.526 123.931 132.48L132.112 145.093V135.176C132.112 133.477 131.818 133.012 130.011 132.945V132.48C130.566 132.526 131.583 132.548 132.375 132.548C133.167 132.548 134.017 132.526 134.526 132.48L134.528 132.945Z" fill="white"/>
<path d="M142.106 132.945C140.534 133.012 140.229 133.25 140.229 134.938V143.433C140.229 145.357 140.206 147.928 139.833 149.48C139.322 151.62 137.592 153.262 134.943 153.262C134.273 153.275 133.61 153.131 133.004 152.844C132.246 152.447 131.896 151.893 131.896 151.246C131.888 151.083 131.915 150.92 131.973 150.768C132.032 150.615 132.121 150.477 132.236 150.361C132.351 150.245 132.489 150.154 132.64 150.094C132.792 150.034 132.954 150.006 133.117 150.012C133.843 150.012 134.397 150.476 134.397 151.269C134.412 151.551 134.32 151.828 134.141 152.046C133.961 152.264 133.707 152.407 133.428 152.447C133.735 152.753 134.515 152.821 134.911 152.821C136.257 152.821 137.277 152.085 137.695 150.85C138.018 149.88 138.091 148.748 138.091 145.538V134.938C138.091 133.25 137.786 133.012 136.212 132.945V132.48C136.858 132.526 137.967 132.548 139.177 132.548C140.242 132.548 141.395 132.526 142.119 132.48L142.106 132.945Z" fill="white"/>
<path d="M158.691 140.557C158.691 145.743 155.635 149.232 151.324 149.232C146.921 149.232 143.979 146.141 143.979 140.824C143.979 135.636 147.034 132.148 151.347 132.148C155.748 132.153 158.691 135.253 158.691 140.557ZM146.288 140.738C146.288 145.675 148.563 148.812 151.415 148.812C154.425 148.812 156.37 145.448 156.37 140.648C156.37 135.709 154.108 132.572 151.256 132.572C148.235 132.572 146.288 135.936 146.288 140.738Z" fill="white"/>
<path d="M175.045 147.747C174.389 148.698 173.812 149.231 172.566 149.231C171.401 149.231 170.519 148.698 170.078 146.717L169.577 144.406C169.134 142.435 168.795 141.111 166.962 141.111H164.747V146.447C164.747 148.133 165.052 148.371 166.626 148.439V148.905C165.912 148.858 164.747 148.837 163.684 148.837C162.483 148.837 161.363 148.858 160.719 148.905V148.439C162.291 148.371 162.596 148.133 162.596 146.447V134.938C162.596 133.25 162.291 133.012 160.719 132.945V132.48C161.365 132.526 162.529 132.548 163.546 132.548C165.001 132.548 166.489 132.503 167.045 132.503C170.779 132.503 172.636 134.271 172.636 136.534C172.636 138.151 171.627 140.454 168.131 140.997L168.413 141.043C170.474 141.382 171.22 142.175 171.661 144.1L172.238 146.468C172.521 147.815 172.783 148.369 173.427 148.369C173.993 148.369 174.264 148.03 174.694 147.486L175.045 147.747ZM166.308 140.646C169.59 140.646 170.315 138.924 170.315 136.795C170.315 134.369 169.273 132.945 166.466 132.945C165.052 132.945 164.747 133.341 164.747 134.938V140.646H166.308Z" fill="white"/>
<path d="M175.736 132.48C176.268 132.514 177.14 132.56 177.998 132.56C178.19 132.56 178.371 132.548 178.564 132.548C179.627 132.526 181.178 132.48 182.06 132.48C187.583 132.48 190.243 135.335 190.243 140.511C190.243 145.561 187.188 148.903 181.857 148.903C181.156 148.903 179.606 148.835 178.609 148.835C177.523 148.835 176.379 148.856 175.734 148.903V148.437C177.308 148.369 177.614 148.132 177.614 146.445V134.938C177.614 133.25 177.308 133.012 175.734 132.945L175.736 132.48ZM179.766 146.49C179.766 148.107 180.071 148.483 181.508 148.483C186.556 148.483 187.924 145.651 187.924 140.601C187.924 135.402 186.284 132.899 181.485 132.899C180.071 132.899 179.766 133.295 179.766 134.893V146.49Z" fill="white"/>
<path d="M210.535 132.945C208.963 133.012 208.657 133.25 208.657 134.938V146.445C208.657 148.132 208.963 148.369 210.535 148.437V148.903C209.811 148.856 208.657 148.835 207.592 148.835C206.382 148.835 205.274 148.856 204.627 148.903V148.437C206.201 148.369 206.495 148.132 206.495 146.445V134.033L200.922 149.016H200.549L194.703 133.958V146.201C194.703 147.899 195.008 148.363 196.803 148.431V148.896C196.249 148.85 195.23 148.829 194.438 148.829C193.646 148.829 192.796 148.85 192.287 148.896V148.431C193.861 148.363 194.166 147.899 194.166 146.201V134.938C194.166 133.25 193.861 133.012 192.287 132.945V132.48C192.796 132.526 193.657 132.548 194.438 132.548C195.116 132.548 195.91 132.526 196.419 132.48L201.51 145.936L206.49 132.548H207.588C208.652 132.548 209.806 132.526 210.53 132.48L210.535 132.945Z" fill="white"/>
<path d="M224.652 146.956C225.116 148.133 225.772 148.411 226.26 148.438V148.904C225.625 148.857 224.652 148.836 223.77 148.836C222.569 148.836 221.461 148.857 220.805 148.904V148.438C221.925 148.393 222.445 148.223 222.445 147.578C222.419 147.203 222.327 146.835 222.174 146.492L220.748 142.692H215.158L214.207 145.149C213.884 145.958 213.742 146.577 213.742 147.053C213.742 148.06 214.434 148.411 215.757 148.445V148.911C214.875 148.864 213.9 148.843 213.086 148.843C212.508 148.835 211.931 148.858 211.355 148.911V148.445C211.955 148.309 212.648 147.822 213.177 146.43L218.632 132.375H219.005L224.652 146.956ZM217.987 135.302L215.327 142.221H220.579L217.987 135.302Z" fill="white"/>
<path d="M240.948 147.747C240.292 148.698 239.715 149.231 238.469 149.231C237.304 149.231 236.42 148.698 235.979 146.717L235.47 144.406C235.029 142.435 234.69 141.111 232.856 141.111H230.655V146.447C230.655 148.133 230.96 148.371 232.533 148.439V148.905C231.82 148.858 230.655 148.837 229.59 148.837C228.391 148.837 227.27 148.858 226.625 148.905V148.439C228.199 148.371 228.504 148.133 228.504 146.447V134.938C228.504 133.25 228.199 133.012 226.625 132.945V132.48C227.271 132.526 228.436 132.548 229.454 132.548C230.909 132.548 232.397 132.503 232.951 132.503C236.687 132.503 238.542 134.271 238.542 136.534C238.542 138.151 237.535 140.454 234.039 140.997L234.321 141.043C236.38 141.382 237.128 142.175 237.569 144.1L238.146 146.468C238.429 147.815 238.689 148.369 239.334 148.369C239.901 148.369 240.172 148.03 240.602 147.486L240.948 147.747ZM232.211 140.646C235.493 140.646 236.217 138.924 236.217 136.795C236.217 134.369 235.176 132.945 232.369 132.945C230.955 132.945 230.65 133.341 230.65 134.938V140.646H232.211Z" fill="white"/>
<path d="M247.548 132.945C245.974 133.012 245.669 133.25 245.669 134.938V146.445C245.669 148.132 245.974 148.369 247.548 148.437V148.903C246.836 148.856 245.669 148.835 244.606 148.835C243.405 148.835 242.285 148.856 241.641 148.903V148.437C243.213 148.369 243.518 148.132 243.518 146.445V134.938C243.518 133.25 243.213 133.012 241.641 132.945V132.48C242.287 132.526 243.405 132.548 244.606 132.548C245.669 132.548 246.836 132.526 247.548 132.48V132.945Z" fill="white"/>
<path d="M264.047 132.945C262.474 133.012 262.168 133.477 262.168 135.176V149.016H261.637L251.904 133.958V146.201C251.904 147.899 252.21 148.363 254.005 148.431V148.896C253.451 148.85 252.433 148.829 251.639 148.829C250.846 148.829 249.999 148.85 249.49 148.896V148.431C251.062 148.363 251.368 147.899 251.368 146.201V134.938C251.368 133.25 251.062 133.012 249.49 132.945V132.48C249.999 132.526 250.859 132.548 251.639 132.548C252.32 132.548 252.942 132.526 253.451 132.48L261.633 145.093V135.176C261.633 133.477 261.339 133.012 259.533 132.945V132.48C260.087 132.526 261.107 132.548 261.898 132.548C262.69 132.548 263.538 132.526 264.049 132.48L264.047 132.945Z" fill="white"/>
<path d="M277.8 144.259C277.754 144.678 277.732 145.289 277.732 145.936C277.732 146.513 277.777 147.724 277.893 148.903C276.319 148.835 274.136 148.835 272.585 148.835C271.194 148.835 268.138 148.835 265.863 148.903V148.437C267.436 148.369 267.741 148.132 267.741 146.445V134.938C267.741 133.25 267.436 133.012 265.863 132.945V132.48C268.138 132.548 271.196 132.548 272.585 132.548C273.975 132.548 275.991 132.548 277.433 132.48C277.32 133.567 277.271 134.689 277.271 135.221C277.266 135.701 277.289 136.181 277.339 136.659H276.804C276.497 133.91 276.147 133.012 273.69 133.012H271.768C270.194 133.012 269.888 133.25 269.888 134.938V140.409H271.428C273.442 140.409 273.396 138.468 273.577 137.351H274.111C274.043 138.336 274.031 139.004 274.031 139.536C274.031 139.967 274.043 140.307 274.043 140.646C274.043 141.405 274.065 142.175 274.178 143.942H273.645C273.464 142.457 273.442 140.87 271.428 140.87H269.888V146.442C269.888 148.128 270.194 148.366 271.768 148.366H273.464C276.361 148.366 276.94 147.325 277.268 144.256L277.8 144.259Z" fill="white"/>
<path d="M234.59 51.9345V50.843C232.897 50.9498 230.197 51.0047 227.708 51.0047H225.141L213.493 82.3184L201.57 50.5859H197.451C196.26 50.691 194.247 50.7476 192.421 50.7476C190.568 50.7476 188.186 50.6943 186.888 50.5859V51.6726C191.124 51.8343 191.812 52.9161 191.812 56.8907V80.095L172.674 50.5859C171.483 50.691 170.027 50.7476 168.439 50.7476C166.613 50.7476 164.601 50.6943 163.41 50.5859V51.6726C167.089 51.8343 167.804 52.3873 167.804 56.3344V82.6984C167.804 86.6714 167.089 87.7564 163.41 87.9165V89.0015C164.601 88.8964 166.613 88.8398 168.439 88.8398C170.292 88.8398 172.674 88.8932 173.971 89.0015V87.9165C169.762 87.7548 169.048 86.6714 169.048 82.6984V54.0561L191.812 89.2602H193.056C194.195 89.2053 195.619 89.0985 196.949 89.0985C198.802 89.0985 201.182 89.1341 202.478 89.2408V88.172C198.269 88.0103 197.555 86.9269 197.555 82.9522V54.318L211.217 89.5238H212.091L225.141 54.4781V83.5069C225.141 87.454 224.452 88.0103 220.778 88.1704V89.2554C222.287 89.1503 224.88 89.0937 227.713 89.0937C230.201 89.0937 232.901 89.147 234.595 89.2554V88.1704C230.916 88.0087 230.201 87.454 230.201 83.5069V56.5964C230.197 52.6493 230.911 52.093 234.59 51.9345ZM196.314 82.9539C196.314 86.4773 195.747 87.7273 193.056 88.0782V56.8907C193.056 54.331 193.358 52.9743 194.552 52.287C195.973 52.7641 196.314 53.8733 196.314 56.5964V82.9539Z" fill="white"/>
</svg>
