<svg width="81" height="66" viewBox="0 0 81 66" fill="none" xmlns="http://www.w3.org/2000/svg">
<g clip-path="url(#clip0_414_3821)">
<path d="M11.9141 37.7578C12.3915 37.394 12.9644 37.0884 13.5493 36.8013C14.1577 36.5136 14.781 36.2583 15.4164 36.0365C16.7571 35.5763 18.1319 35.2222 19.528 34.9773C22.3872 34.468 25.3943 34.3475 28.3473 34.5076C31.2545 34.681 34.1413 35.1062 36.9751 35.7786C37.6659 35.9443 38.3599 36.1092 39.0321 36.3033C39.3709 36.3955 39.7089 36.4898 40.046 36.5863C40.3813 36.6849 40.7093 36.7916 41.0414 36.8935L42.0319 37.2048L43.0014 37.5419L44.8249 38.1887C47.1309 39.011 49.4821 39.7004 51.8668 40.2537C52.1682 40.3216 52.4719 40.3814 52.7749 40.4461C53.0779 40.5108 53.3784 40.5819 53.6854 40.6321L54.6032 40.8002C54.9086 40.8617 55.2181 40.8989 55.5267 40.9498C56.1423 41.0557 56.7653 41.1252 57.3849 41.2093C57.6968 41.2473 58.0103 41.274 58.3245 41.308L58.7964 41.3565L59.2698 41.3929C60.5334 41.498 61.8097 41.5492 63.0986 41.5465C64.3864 41.5465 65.6839 41.4996 66.9928 41.3848C69.6056 41.1641 72.2443 40.7493 74.8596 40.0103C73.9603 40.7711 72.8325 41.3985 71.6432 41.9621C70.4001 42.534 69.1152 43.0105 67.7999 43.3875C66.4158 43.7872 65.0077 44.0985 63.5841 44.3197C62.857 44.4369 62.1242 44.5137 61.385 44.5929L60.2725 44.6738C59.9 44.7061 59.5275 44.7094 59.1535 44.7272L58.5928 44.749C58.4053 44.753 58.2187 44.749 58.0321 44.753C57.658 44.753 57.2823 44.753 56.9083 44.753C56.1625 44.7272 55.4096 44.7118 54.6679 44.6487C53.174 44.5541 51.7052 44.3569 50.2518 44.1232C47.4359 43.6376 44.6669 42.9107 41.9754 41.9507L40.1317 41.2837L39.2704 40.9603L38.3971 40.6604C38.1062 40.5601 37.8178 40.455 37.5253 40.358C37.2328 40.2609 36.9371 40.1704 36.6439 40.0742C36.0613 39.8745 35.4635 39.7079 34.8729 39.5244C32.4747 38.808 30.0378 38.2282 27.5741 37.7877C25.0808 37.3649 22.5229 37.0714 19.8988 37.0326C17.2747 36.9938 14.5956 37.153 11.9141 37.7578Z" fill="#FF321B"/>
<path d="M5 43.6153C5.46585 43.1903 5.97152 42.8113 6.51001 42.4834C7.07585 42.1291 7.66087 41.8066 8.2624 41.5172C9.54323 40.9068 10.8753 40.4103 12.2431 40.0336L12.7739 39.888C12.9524 39.8411 13.1334 39.7999 13.3127 39.7563C13.6731 39.6679 14.038 39.5892 14.4075 39.5202C14.7759 39.4498 15.1435 39.3714 15.5208 39.3229C15.8981 39.2744 16.2706 39.2048 16.6519 39.1668C17.0332 39.1288 17.4114 39.0787 17.7943 39.052L18.9448 38.976C19.3302 38.9631 19.7156 38.9574 20.1009 38.9485C20.294 38.9413 20.4863 38.9485 20.6794 38.9485L21.2579 38.9599C22.7863 39.0008 24.3097 39.1548 25.8154 39.4207L26.3721 39.5185L26.919 39.6358C27.2842 39.7166 27.6462 39.7926 28.0057 39.8783C28.7126 40.074 29.4268 40.2519 30.099 40.4928C30.44 40.6044 30.7761 40.724 31.1105 40.8421C31.445 40.9601 31.7625 41.1 32.0801 41.235C32.7329 41.4889 33.3323 41.801 33.9383 42.0969C34.2413 42.2448 34.5256 42.4122 34.8108 42.5763C35.096 42.7405 35.3764 42.9054 35.6527 43.076C36.1924 43.4261 36.707 43.7948 37.195 44.1764C36.4808 44.0147 35.807 43.8247 35.134 43.6428C34.789 43.5619 34.4537 43.4722 34.1168 43.3873C33.7799 43.3024 33.456 43.2037 33.1126 43.1326L32.1091 42.89C31.7803 42.8043 31.4442 42.734 31.1089 42.6637C30.7736 42.5933 30.444 42.5173 30.1144 42.4429C29.7847 42.3685 29.4422 42.3208 29.1117 42.2529L28.6157 42.1608C28.4541 42.1276 28.2804 42.1066 28.1139 42.0799L27.1178 41.9101C26.7841 41.8608 26.4472 41.8236 26.1168 41.7719L25.6191 41.6999L25.1174 41.6474C24.7813 41.6174 24.4516 41.5665 24.1171 41.5374L23.1145 41.4565L22.864 41.4347L22.6136 41.4218L22.1111 41.3967L21.6101 41.3676C21.4429 41.3611 21.2749 41.3603 21.1076 41.3555C20.7731 41.3498 20.4378 41.3296 20.1034 41.3353H19.0999L18.0941 41.3628C17.758 41.3717 17.4251 41.4024 17.0882 41.4137C16.7513 41.425 16.4176 41.4606 16.0815 41.4848C15.7454 41.5091 15.4109 41.5422 15.0748 41.5762C14.9076 41.594 14.7379 41.6069 14.5715 41.628C14.4051 41.649 14.2378 41.6724 14.0698 41.691C13.9017 41.7096 13.7321 41.7282 13.5648 41.7508L13.0631 41.8244C11.7209 42.0163 10.3794 42.2618 9.03882 42.561C7.69605 42.8634 6.35893 43.2045 5 43.6153Z" fill="#025ACC"/>
<path d="M32.4492 32.4646C33.407 32.2775 34.3758 32.1527 35.3497 32.0911C36.3345 32.0215 37.3307 32.0046 38.3253 32.032C40.3015 32.0964 42.2705 32.3042 44.2167 32.6538C45.1765 32.8276 46.1242 33.0136 47.0775 33.2489C48.0309 33.4841 48.9358 33.734 49.8172 34L52.4114 34.7794C53.2557 35.0284 54.0944 35.2742 54.916 35.4674C58.1429 36.267 61.6266 36.495 65.1872 36.2274C68.7477 35.9598 72.3397 35.2176 76.0029 34.2999C75.31 34.8075 74.5766 35.2572 73.8102 35.6445C73.4216 35.8515 73.0233 36.0487 72.612 36.2379C72.4076 36.3349 72.2 36.4255 71.9923 36.5193L71.3541 36.7812C69.5645 37.4993 67.7097 38.0427 65.8157 38.4039C63.7942 38.7899 61.7379 38.9636 59.6804 38.9222C57.6006 38.8846 55.5315 38.6159 53.511 38.1209C52.5262 37.884 51.614 37.6027 50.7213 37.3124C49.8285 37.0222 48.9729 36.7158 48.1359 36.415C47.2989 36.1142 46.4789 35.8159 45.6637 35.541C45.2548 35.4003 44.8557 35.2718 44.4308 35.1367C44.0058 35.0017 43.5921 34.8723 43.1696 34.7462C41.4818 34.2336 39.7601 33.7833 37.9859 33.3928C36.2117 33.0023 34.3794 32.7063 32.4492 32.4646Z" fill="#025ACC"/>
<path d="M8.26379 49.4742C7.47767 49.5082 7.32498 49.7402 7.32498 50.59V57.51H7.05836L2.19222 49.9812V56.1024C2.19222 56.9513 2.34492 57.1834 3.24253 57.2173V57.4502C2.96541 57.4267 2.45561 57.4162 2.05972 57.4162C1.66384 57.4162 1.23887 57.4267 0.984375 57.4502V57.2173C1.77129 57.1834 1.92399 56.9513 1.92399 56.1024V50.4711C1.92399 49.627 1.77129 49.5082 0.984375 49.4742V49.2422C1.23887 49.2648 1.6695 49.2761 2.05972 49.2761C2.39905 49.2761 2.7101 49.2648 2.96541 49.2422L7.05594 55.5486V50.59C7.05594 49.7402 6.90889 49.5082 6.00563 49.4742V49.2422C6.28275 49.2648 6.79175 49.2761 7.18763 49.2761C7.58351 49.2761 8.00848 49.2648 8.26298 49.2422L8.26379 49.4742Z" fill="white"/>
<path d="M12.0512 49.4742C11.2651 49.5082 11.1124 49.627 11.1124 50.4711V54.7182C11.1124 55.6804 11.1011 56.9659 10.9145 57.7421C10.6592 58.8117 9.79387 59.6332 8.46968 59.6332C8.13468 59.6393 7.80282 59.5676 7.50017 59.4238C7.12125 59.2257 6.94593 58.9484 6.94593 58.625C6.94219 58.5434 6.95539 58.462 6.98468 58.3859C7.01398 58.3097 7.05874 58.2404 7.11614 58.1825C7.17354 58.1245 7.24233 58.0791 7.31816 58.049C7.394 58.019 7.47523 58.0051 7.55673 58.0081C7.91948 58.0081 8.1966 58.2401 8.1966 58.6363C8.20387 58.7773 8.15817 58.916 8.06847 59.0251C7.97878 59.1341 7.85157 59.2057 7.71185 59.2257C7.86535 59.3785 8.25558 59.4124 8.45352 59.4124C9.12653 59.4124 9.63633 59.0446 9.84558 58.4269C10.0072 57.9418 10.0435 57.3758 10.0435 55.7709V50.4711C10.0435 49.627 9.89082 49.5082 9.1039 49.4742V49.2422C9.42707 49.2648 9.98131 49.2761 10.5864 49.2761C11.1189 49.2761 11.6957 49.2648 12.0577 49.2422L12.0512 49.4742Z" fill="white"/>
<path d="M20.3444 53.2785C20.3444 55.8714 18.8167 57.6161 16.6611 57.6161C14.4595 57.6161 12.9883 56.0703 12.9883 53.4119C12.9883 50.8182 14.5161 49.0742 16.6724 49.0742C18.8732 49.0766 20.3444 50.6266 20.3444 53.2785ZM14.1428 53.369C14.1428 55.8374 15.2804 57.4059 16.7064 57.4059C18.2115 57.4059 19.1843 55.7242 19.1843 53.3238C19.1843 50.8546 18.0532 49.286 16.6272 49.286C15.1164 49.286 14.1428 50.9678 14.1428 53.369Z" fill="white"/>
<path d="M28.5224 56.8753C28.1944 57.3507 27.906 57.6176 27.2831 57.6176C26.7006 57.6176 26.2594 57.3507 26.0389 56.3603L25.7884 55.205C25.5671 54.2194 25.3974 53.5572 24.4812 53.5572H23.3735V56.2253C23.3735 57.0686 23.5262 57.1874 24.3132 57.2214V57.4542C23.956 57.4308 23.3735 57.4203 22.8419 57.4203C22.2416 57.4203 21.6817 57.4308 21.3594 57.4542V57.2214C22.1455 57.1874 22.2982 57.0686 22.2982 56.2253V50.4711C22.2982 49.627 22.1455 49.5082 21.3594 49.4742V49.2422C21.6825 49.2648 22.2643 49.2761 22.7732 49.2761C23.5004 49.2761 24.2445 49.2535 24.5224 49.2535C26.3895 49.2535 27.3178 50.1372 27.3178 51.2691C27.3178 52.0776 26.8137 53.229 25.0653 53.5006L25.2067 53.5233C26.2368 53.693 26.6101 54.0892 26.8306 55.0521L27.1191 56.2358C27.2605 56.9093 27.3913 57.1866 27.7137 57.1866C27.9965 57.1866 28.1322 57.0168 28.3471 56.7452L28.5224 56.8753ZM24.154 53.3252C25.7949 53.3252 26.1576 52.4641 26.1576 51.3993C26.1576 50.1865 25.6365 49.4742 24.2332 49.4742C23.5262 49.4742 23.3735 49.6723 23.3735 50.4711V53.3252H24.154Z" fill="white"/>
<path d="M28.868 49.2422C29.1338 49.2592 29.5701 49.2818 29.9991 49.2818C30.0952 49.2818 30.1857 49.2761 30.2819 49.2761C30.8135 49.2648 31.5891 49.2422 32.0302 49.2422C34.7917 49.2422 36.1216 50.6692 36.1216 53.2573C36.1216 55.7822 34.5938 57.4534 31.9284 57.4534C31.5778 57.4534 30.803 57.4195 30.3045 57.4195C29.7616 57.4195 29.1895 57.43 28.8672 57.4534V57.2206C29.6541 57.1866 29.8068 57.0678 29.8068 56.2245V50.4711C29.8068 49.627 29.6541 49.5082 28.8672 49.4742L28.868 49.2422ZM30.883 56.2471C30.883 57.0556 31.0357 57.2432 31.7539 57.2432C34.2779 57.2432 34.9622 55.8275 34.9622 53.3025C34.9622 50.7032 34.1421 49.4516 31.7426 49.4516C31.0357 49.4516 30.883 49.6497 30.883 50.4485V56.2471Z" fill="white"/>
<path d="M46.2684 49.4742C45.4823 49.5082 45.3296 49.627 45.3296 50.4711V56.2245C45.3296 57.0678 45.4823 57.1866 46.2684 57.2206V57.4534C45.9065 57.43 45.3296 57.4195 44.7972 57.4195C44.1921 57.4195 43.6378 57.43 43.3147 57.4534V57.2206C44.1016 57.1866 44.2486 57.0678 44.2486 56.2245V50.0184L41.4621 57.51H41.2755L38.3524 49.9812V56.1024C38.3524 56.9513 38.5051 57.1834 39.4027 57.2173V57.4502C39.1256 57.4267 38.6158 57.4162 38.2199 57.4162C37.824 57.4162 37.399 57.4267 37.1445 57.4502V57.2173C37.9315 57.1834 38.0841 56.9513 38.0841 56.1024V50.4711C38.0841 49.627 37.9315 49.5082 37.1445 49.4742V49.2422C37.399 49.2648 37.8297 49.2761 38.2199 49.2761C38.5592 49.2761 38.9559 49.2648 39.2104 49.2422L41.7562 55.9698L44.2462 49.2761H44.7948C45.3272 49.2761 45.9041 49.2648 46.266 49.2422L46.2684 49.4742Z" fill="white"/>
<path d="M53.3242 56.4778C53.5561 57.0664 53.8841 57.2055 54.1281 57.2192V57.4521C53.8106 57.4286 53.3242 57.4181 52.8831 57.4181C52.2828 57.4181 51.7286 57.4286 51.4005 57.4521V57.2192C51.9604 57.1966 52.2206 57.1117 52.2206 56.7891C52.2077 56.6014 52.1618 56.4175 52.0848 56.2458L51.3723 54.3458H48.5768L48.1018 55.5747C47.9402 55.979 47.8691 56.2886 47.8691 56.5263C47.8691 57.03 48.2149 57.2055 48.8766 57.2225V57.4553C48.4354 57.4319 47.9483 57.4214 47.5411 57.4214C47.2522 57.4176 46.9634 57.4289 46.6758 57.4553V57.2225C46.9755 57.1546 47.3221 56.9112 47.5863 56.2151L50.3139 49.1875H50.5005L53.3242 56.4778ZM49.9915 50.6509L48.6617 54.1105H51.2874L49.9915 50.6509Z" fill="white"/>
<path d="M61.474 56.8753C61.1459 57.3507 60.8575 57.6175 60.2346 57.6175C59.6521 57.6175 59.2101 57.3507 58.9896 56.3603L58.7351 55.205C58.5145 54.2194 58.3449 53.5572 57.4279 53.5572H56.3275V56.2253C56.3275 57.0686 56.4802 57.1874 57.2663 57.2214V57.4542C56.91 57.4308 56.3275 57.4203 55.795 57.4203C55.1956 57.4203 54.6349 57.4308 54.3125 57.4542V57.2214C55.0994 57.1874 55.2521 57.0686 55.2521 56.2253V50.4711C55.2521 49.627 55.0994 49.5082 54.3125 49.4742V49.2422C54.6357 49.2648 55.2182 49.2761 55.7272 49.2761C56.4543 49.2761 57.1984 49.2535 57.4755 49.2535C59.3435 49.2535 60.271 50.1372 60.271 51.2691C60.271 52.0776 59.7676 53.229 58.0193 53.5006L58.1607 53.5233C59.1899 53.693 59.564 54.0892 59.7846 55.0521L60.073 56.2358C60.2144 56.9093 60.3445 57.1866 60.6668 57.1866C60.9504 57.1866 61.0862 57.0168 61.3011 56.7452L61.474 56.8753ZM57.1055 53.3252C58.7464 53.3252 59.1083 52.4641 59.1083 51.3993C59.1083 50.1865 58.588 49.4742 57.1847 49.4742C56.4777 49.4742 56.325 49.6723 56.325 50.4711V53.3252H57.1055Z" fill="white"/>
<path d="M64.7741 49.4742C63.9872 49.5082 63.8345 49.627 63.8345 50.4711V56.2245C63.8345 57.0678 63.9872 57.1866 64.7741 57.2206V57.4534C64.4178 57.43 63.8345 57.4195 63.3029 57.4195C62.7026 57.4195 62.1427 57.43 61.8203 57.4534V57.2206C62.6064 57.1866 62.7591 57.0678 62.7591 56.2245V50.4711C62.7591 49.627 62.6064 49.5082 61.8203 49.4742V49.2422C62.1435 49.2648 62.7026 49.2761 63.3029 49.2761C63.8345 49.2761 64.4178 49.2648 64.7741 49.2422V49.4742Z" fill="white"/>
<path d="M73.0247 49.4742C72.2378 49.5082 72.0851 49.7402 72.0851 50.59V57.51H71.8193L66.9531 49.9812V56.1024C66.9531 56.9513 67.1058 57.1834 68.0034 57.2173V57.4502C67.7263 57.4267 67.2173 57.4162 66.8206 57.4162C66.4239 57.4162 66.0006 57.4267 65.7461 57.4502V57.2173C66.5322 57.1834 66.6849 56.9513 66.6849 56.1024V50.4711C66.6849 49.627 66.5322 49.5082 65.7461 49.4742V49.2422C66.0006 49.2648 66.4304 49.2761 66.8206 49.2761C67.1608 49.2761 67.4718 49.2648 67.7263 49.2422L71.8177 55.5486V50.59C71.8177 49.7402 71.6706 49.5082 70.7674 49.4742V49.2422C71.0445 49.2648 71.5543 49.2761 71.9502 49.2761C72.346 49.2761 72.7702 49.2648 73.0255 49.2422L73.0247 49.4742Z" fill="white"/>
<path d="M79.9017 55.1314C79.8791 55.3408 79.8678 55.6464 79.8678 55.9698C79.8678 56.2584 79.8904 56.864 79.9486 57.4534C79.1617 57.4195 78.0702 57.4195 77.2946 57.4195C76.5989 57.4195 75.0712 57.4195 73.9336 57.4534V57.2206C74.7197 57.1866 74.8724 57.0678 74.8724 56.2245V50.4711C74.8724 49.627 74.7197 49.5082 73.9336 49.4742V49.2422C75.0712 49.2761 76.5997 49.2761 77.2946 49.2761C77.9894 49.2761 78.9977 49.2761 79.7183 49.2422C79.6618 49.7855 79.6375 50.3466 79.6375 50.6126C79.635 50.8527 79.6463 51.0926 79.6715 51.3314H79.4041C79.2505 49.9569 79.0752 49.5082 77.8472 49.5082H76.8858C76.0988 49.5082 75.9461 49.627 75.9461 50.4711V53.2063H76.7161C77.7228 53.2063 77.7001 52.2361 77.7906 51.6774H78.0572C78.0233 52.1698 78.0177 52.5037 78.0177 52.7697C78.0177 52.9856 78.0233 53.1554 78.0233 53.3252C78.0233 53.7044 78.0346 54.0892 78.0912 54.9729H77.8246C77.7341 54.2307 77.7228 53.4367 76.7161 53.4367H75.9461V56.2229C75.9461 57.0661 76.0988 57.185 76.8858 57.185H77.7341C79.1827 57.185 79.4719 56.6643 79.6359 55.1298L79.9017 55.1314Z" fill="white"/>
<path d="M58.2931 8.96727V8.42152C57.4464 8.47488 56.0963 8.50237 54.8521 8.50237H53.5683L47.7448 24.1592L41.7831 8.29297H39.7237C39.1283 8.34552 38.1216 8.37382 37.2086 8.37382C36.2819 8.37382 35.0911 8.34714 34.4423 8.29297V8.83629C36.5599 8.91714 36.904 9.45803 36.904 11.4454V23.0475L27.335 8.29297C26.7395 8.34552 26.0116 8.37382 25.2174 8.37382C24.3044 8.37382 23.2986 8.34714 22.7031 8.29297V8.83629C24.5428 8.91714 24.8999 9.19365 24.8999 11.1672V24.3492C24.8999 26.3357 24.5428 26.8782 22.7031 26.9582V27.5008C23.2986 27.4482 24.3044 27.4199 25.2174 27.4199C26.1441 27.4199 27.335 27.4466 27.9837 27.5008V26.9582C25.8791 26.8774 25.522 26.3357 25.522 24.3492V10.028L36.904 27.6301H37.5261C38.0957 27.6026 38.8075 27.5493 39.4724 27.5493C40.3991 27.5493 41.5892 27.5671 42.2372 27.6204V27.086C40.1325 27.0051 39.7754 26.4634 39.7754 24.4761V10.159L46.6064 27.7619H47.0435L53.5683 10.2391V24.7534C53.5683 26.727 53.2241 27.0051 51.3869 27.0852V27.6277C52.1415 27.5751 53.4382 27.5468 54.8545 27.5468C56.0987 27.5468 57.4488 27.5735 58.2955 27.6277V27.0852C56.4558 27.0043 56.0987 26.727 56.0987 24.7534V11.2982C56.0963 9.32463 56.4534 9.0465 58.2931 8.96727ZM39.1549 24.4769C39.1549 26.2387 38.8713 26.8636 37.5261 27.0391V11.4454C37.5261 10.1655 37.6772 9.48714 38.2743 9.14352C38.9844 9.38203 39.1549 9.93667 39.1549 11.2982V24.4769Z" fill="white"/>
</g>
<defs>
<clipPath id="clip0_414_3821">
<rect width="80" height="64.6809" fill="white" transform="translate(0.5 0.660156)"/>
</clipPath>
</defs>
</svg>
