<svg width="121" height="120" viewBox="0 0 121 120" fill="none" xmlns="http://www.w3.org/2000/svg">
<g clip-path="url(#clip0_467_28421)">
<path d="M120.501 37.0249C120.501 37.0026 120.499 36.9823 120.497 36.962C120.497 36.9195 120.495 36.8769 120.491 36.8364C120.489 36.808 120.483 36.7796 120.479 36.7512C120.475 36.7147 120.469 36.6762 120.463 36.6398C120.457 36.6094 120.449 36.5789 120.443 36.5485C120.435 36.5141 120.426 36.4817 120.416 36.4472C120.406 36.4148 120.396 36.3844 120.384 36.354C120.374 36.3236 120.362 36.2911 120.349 36.2607C120.335 36.2283 120.321 36.1979 120.307 36.1655C120.293 36.1371 120.28 36.1087 120.266 36.0824C120.248 36.0479 120.228 36.0155 120.21 35.983C120.195 35.9587 120.181 35.9344 120.165 35.9101C120.141 35.8736 120.116 35.8412 120.09 35.8067C120.078 35.7905 120.066 35.7722 120.053 35.756C120.051 35.752 120.047 35.7499 120.045 35.7479C120.019 35.7155 119.989 35.6831 119.96 35.6527C119.944 35.6344 119.926 35.6141 119.91 35.5959C119.887 35.5736 119.865 35.5533 119.841 35.5331C119.725 35.4277 119.601 35.3365 119.47 35.2615C119.46 35.2554 119.449 35.2493 119.439 35.2432C119.411 35.227 119.381 35.2149 119.352 35.2007C119.322 35.1865 119.291 35.1703 119.259 35.1561C119.251 35.152 119.241 35.15 119.233 35.1459C119.089 35.0872 118.935 35.0466 118.775 35.0223C118.746 35.0182 118.718 35.0122 118.689 35.0101C118.663 35.0081 118.637 35.0061 118.61 35.0061C118.57 35.0041 118.527 35 118.487 35C118.483 35 118.479 35 118.475 35H48.8042C48.8042 35 48.7961 35 48.7921 35C48.7495 35 48.7069 35.0041 48.6644 35.0061C48.6401 35.0061 48.6137 35.0061 48.5874 35.0101C48.557 35.0142 48.5265 35.0203 48.4961 35.0243C48.3401 35.0486 48.1901 35.0892 48.0482 35.1459C48.0381 35.15 48.0279 35.152 48.0178 35.1581C47.9874 35.1703 47.957 35.1865 47.9266 35.2007C47.8962 35.2149 47.8678 35.227 47.8374 35.2432C47.8273 35.2493 47.8171 35.2554 47.807 35.2615C47.6753 35.3365 47.5496 35.4277 47.4361 35.5331C47.4138 35.5533 47.3895 35.5736 47.3672 35.5959C47.3489 35.6141 47.3327 35.6324 47.3165 35.6527C47.2881 35.6831 47.2577 35.7155 47.2314 35.7479C47.2293 35.752 47.2253 35.754 47.2233 35.756C47.2111 35.7722 47.1989 35.7905 47.1868 35.8067C47.1604 35.8412 47.1361 35.8756 47.1118 35.9101C47.0956 35.9344 47.0814 35.9587 47.0672 35.983C47.0469 36.0155 47.0287 36.0479 47.0104 36.0824C46.9962 36.1107 46.9841 36.1391 46.9699 36.1655C46.9557 36.1979 46.9395 36.2283 46.9273 36.2607C46.9152 36.2911 46.905 36.3215 46.8929 36.354C46.8827 36.3844 46.8706 36.4168 46.8604 36.4472C46.8503 36.4796 46.8422 36.5141 46.8341 36.5485C46.826 36.5789 46.8199 36.6094 46.8138 36.6398C46.8057 36.6762 46.8017 36.7147 46.7976 36.7512C46.7936 36.7796 46.7895 36.808 46.7875 36.8364C46.7834 36.8789 46.7814 36.9215 46.7814 36.962C46.7814 36.9823 46.7773 37.0046 46.7773 37.0249V79.0788C46.7773 79.0788 46.7773 79.0869 46.7773 79.0909C46.7773 79.1376 46.7814 79.1822 46.7834 79.2267C46.7834 79.249 46.7834 79.2693 46.7875 79.2916C46.7915 79.3382 46.7996 79.3848 46.8077 79.4315C46.8118 79.4517 46.8138 79.47 46.8179 79.4902C46.828 79.5369 46.8402 79.5835 46.8544 79.6301C46.8584 79.6483 46.8625 79.6646 46.8686 79.6828C46.8767 79.7091 46.8888 79.7355 46.8969 79.7618C46.9091 79.7983 46.9213 79.8348 46.9354 79.8693C46.9415 79.8814 46.9476 79.8936 46.9537 79.9078C46.976 79.9564 46.9962 80.003 47.0226 80.0497C47.0307 80.0659 47.0408 80.0801 47.051 80.0963C47.0753 80.1388 47.0996 80.1814 47.128 80.2199C47.1402 80.2361 47.1523 80.2523 47.1645 80.2706C47.1908 80.3091 47.2192 80.3456 47.2496 80.3821C47.2516 80.3861 47.2537 80.3882 47.2577 80.3922C47.2679 80.4044 47.28 80.4165 47.2922 80.4287C47.3266 80.4672 47.3591 80.5037 47.3955 80.5381C47.4158 80.5584 47.4381 80.5767 47.4604 80.5969C47.4908 80.6233 47.5212 80.6496 47.5536 80.676C47.578 80.6962 47.6043 80.7145 47.6307 80.7327C47.6611 80.755 47.6935 80.7753 47.7259 80.7956C47.7523 80.8118 47.7786 80.828 47.807 80.8442C47.8415 80.8645 47.8779 80.8827 47.9144 80.901C47.9408 80.9131 47.9651 80.9273 47.9915 80.9374C48.034 80.9557 48.0766 80.9719 48.1191 80.9881C48.1414 80.9962 48.1617 81.0043 48.184 81.0124C48.2347 81.0286 48.2874 81.0428 48.338 81.055C48.3543 81.0591 48.3685 81.0631 48.3847 81.0672C48.4434 81.0793 48.5043 81.0895 48.5671 81.0955C48.5752 81.0955 48.5853 81.0996 48.5934 81.0996C48.6624 81.1077 48.7333 81.1117 48.8063 81.1117H118.473C118.543 81.1117 118.614 81.1077 118.685 81.0996C118.693 81.0996 118.702 81.0976 118.712 81.0955C118.772 81.0874 118.835 81.0793 118.894 81.0672C118.908 81.0631 118.924 81.0591 118.939 81.055C118.991 81.0428 119.044 81.0286 119.095 81.0124C119.117 81.0064 119.137 80.9962 119.158 80.9901C119.2 80.9739 119.245 80.9577 119.287 80.9395C119.314 80.9273 119.338 80.9151 119.362 80.903C119.399 80.8847 119.435 80.8665 119.47 80.8462C119.496 80.83 119.522 80.8138 119.549 80.7976C119.581 80.7773 119.614 80.755 119.644 80.7327C119.67 80.7145 119.695 80.6962 119.721 80.676C119.753 80.6516 119.784 80.6253 119.814 80.5969C119.837 80.5767 119.859 80.5584 119.879 80.5381C119.916 80.5037 119.95 80.4672 119.983 80.4287C119.995 80.4165 120.007 80.4044 120.017 80.3922C120.019 80.3882 120.021 80.3861 120.025 80.3821C120.056 80.3456 120.082 80.3091 120.11 80.2706C120.122 80.2544 120.137 80.2382 120.147 80.2199C120.175 80.1794 120.199 80.1368 120.224 80.0963C120.232 80.0801 120.244 80.0659 120.252 80.0497C120.276 80.003 120.299 79.9564 120.321 79.9078C120.327 79.8956 120.333 79.8835 120.339 79.8693C120.353 79.8348 120.366 79.7983 120.378 79.7618C120.388 79.7355 120.398 79.7091 120.406 79.6828C120.412 79.6666 120.414 79.6483 120.42 79.6301C120.435 79.5835 120.447 79.5369 120.457 79.4902C120.461 79.47 120.463 79.4517 120.467 79.4315C120.475 79.3848 120.483 79.3382 120.487 79.2916C120.489 79.2713 120.489 79.249 120.491 79.2267C120.495 79.1822 120.497 79.1355 120.497 79.0909C120.497 79.0869 120.497 79.0828 120.497 79.0788V37.0249H120.501ZM50.8311 41.253L71.1183 57.5471L50.8311 74.7108V41.253ZM91.7257 55.9074C91.7257 55.9074 91.7176 55.9135 91.7135 55.9175L83.6404 62.4015L75.5653 55.9155C75.5653 55.9155 75.5592 55.9094 75.5551 55.9074L54.5667 39.0518H112.714L91.7277 55.9074H91.7257ZM74.339 60.1314L82.3695 66.581C82.7405 66.8789 83.1904 67.0269 83.6384 67.0269C84.0863 67.0269 84.5363 66.8789 84.9072 66.581L92.9377 60.1314L112.939 77.0519H54.3376L74.339 60.1314ZM96.1585 57.5451L116.446 41.2509V74.7088L96.1585 57.5451Z" fill="#223E7F"/>
<path d="M41.5476 35.2007H25.8452C24.7264 35.2007 23.8184 36.1087 23.8184 37.2275C23.8184 38.3464 24.7264 39.2544 25.8452 39.2544H41.5476C42.6664 39.2544 43.5745 38.3464 43.5745 37.2275C43.5745 36.1087 42.6664 35.2007 41.5476 35.2007Z" fill="#223E7F"/>
<path d="M41.5464 43.5879H37.5757C36.4569 43.5879 35.5488 44.4959 35.5488 45.6148C35.5488 46.7336 36.4569 47.6417 37.5757 47.6417H41.5464C42.6652 47.6417 43.5733 46.7336 43.5733 45.6148C43.5733 44.4959 42.6652 43.5879 41.5464 43.5879Z" fill="#223E7F"/>
<path d="M23.718 45.6148C23.718 44.4959 22.81 43.5879 21.6911 43.5879H2.52689C1.40805 43.5879 0.5 44.4959 0.5 45.6148C0.5 46.7336 1.40805 47.6417 2.52689 47.6417H21.6911C22.81 47.6417 23.718 46.7336 23.718 45.6148Z" fill="#223E7F"/>
<path d="M41.5476 51.9752H25.8452C24.7264 51.9752 23.8184 52.8832 23.8184 54.002C23.8184 55.1209 24.7264 56.0289 25.8452 56.0289H41.5476C42.6664 56.0289 43.5745 55.1209 43.5745 54.002C43.5745 52.8832 42.6664 51.9752 41.5476 51.9752Z" fill="#223E7F"/>
<path d="M18.1247 54.002C18.1247 52.8832 17.2167 51.9752 16.0978 51.9752H8.24564C7.1268 51.9752 6.21875 52.8832 6.21875 54.002C6.21875 55.1209 7.1268 56.0289 8.24564 56.0289H16.0978C17.2167 56.0289 18.1247 55.1209 18.1247 54.002Z" fill="#223E7F"/>
<path d="M41.5456 60.3625H21.8726C20.7537 60.3625 19.8457 61.2705 19.8457 62.3894C19.8457 63.5082 20.7537 64.4163 21.8726 64.4163H41.5456C42.6644 64.4163 43.5725 63.5082 43.5725 62.3894C43.5725 61.2705 42.6644 60.3625 41.5456 60.3625Z" fill="#223E7F"/>
<path d="M41.548 68.7497H36.6753C35.5565 68.7497 34.6484 69.6577 34.6484 70.7766C34.6484 71.8954 35.5565 72.8035 36.6753 72.8035H41.548C42.6668 72.8035 43.5749 71.8954 43.5749 70.7766C43.5749 69.6577 42.6668 68.7497 41.548 68.7497Z" fill="#223E7F"/>
<path d="M32.7447 70.7766C32.7447 69.6577 31.8367 68.7497 30.7178 68.7497H13.9331C12.8143 68.7497 11.9062 69.6577 11.9062 70.7766C11.9062 71.8954 12.8143 72.8035 13.9331 72.8035H30.7178C31.8367 72.8035 32.7447 71.8954 32.7447 70.7766Z" fill="#223E7F"/>
<path d="M41.548 77.137H30.7183C29.5995 77.137 28.6914 78.045 28.6914 79.1639C28.6914 80.2827 29.5995 81.1908 30.7183 81.1908H41.548C42.6668 81.1908 43.5749 80.2827 43.5749 79.1639C43.5749 78.045 42.6668 77.137 41.548 77.137Z" fill="#223E7F"/>
</g>
<defs>
<clipPath id="clip0_467_28421">
<rect width="120" height="120" fill="white" transform="translate(0.5)"/>
</clipPath>
</defs>
</svg>
